<svg xmlns="http://www.w3.org/2000/svg" viewBox="0 0 203 84" style="enable-background:new 0 0 203 84" xml:space="preserve"><path d="M134.7 62.4v3.8c-.3-.5-1-1-2.1-1-1.7 0-3.1 1.3-3.1 3.4 0 1.8 1.3 3.2 3 3.2 1.1 0 2-.5 2.4-1.3l.1 1.2h1.1c0-.5-.1-1-.1-1.6v-7.6h-1.3v-.1zm0 6.5c0 .2 0 .3-.1.5-.2.8-1 1.5-1.9 1.5-1.4 0-2.1-1-2.1-2.3 0-1.4.8-2.4 2.1-2.4 1 0 1.7.6 1.9 1.3 0 .2.1.4.1.5v.9zm8.9-3.5h-1.2v3.7c0 .2-.1.4-.1.6-.3.6-.9 1.1-1.7 1.1-1.1 0-1.6-.8-1.6-2.1v-3.3h-1.2v3.5c0 2.4 1.4 2.8 2.4 2.8 1.3 0 2-.7 2.3-1.3l.1 1.1h1c0-.5-.1-1.1-.1-1.7v-4.4h.1zm13.4 6.5c-.8-.1-1.9-.3-2.8-.5v-.1c1.6-.5 2.8-2 2.8-4.2 0-2.5-1.8-4.4-4.4-4.4-2.6 0-4.5 1.9-4.5 4.6 0 2.7 2 4.3 4.3 4.4.2 0 .4.1.6.1 1.2.4 2.4.7 3.8 1l.2-.9zm-4.5-1.1c-2 0-3.2-1.6-3.2-3.5s1.1-3.7 3.3-3.7c2.1 0 3.2 1.8 3.2 3.5 0 2.2-1.3 3.7-3.3 3.7zm11.7-5.4H163v3.7c0 .2-.1.4-.1.6-.3.6-.9 1.1-1.7 1.1-1.1 0-1.6-.8-1.6-2.1v-3.3h-1.2v3.5c0 2.4 1.4 2.8 2.4 2.8 1.3 0 2-.7 2.3-1.3l.1 1.1h1c0-.5-.1-1.1-.1-1.7v-4.4h.1zm5.3-2.7-1.2 1.9h.8l1.6-1.9h-1.2zm2.2 6v-.5c0-1.1-.5-3-2.8-3-2 0-3.2 1.5-3.2 3.4s1.3 3.1 3.3 3.1c1.2 0 1.9-.3 2.3-.4l-.2-.8c-.5.2-1 .3-2 .3-1.3 0-2.3-.7-2.3-2.1h4.9zm-4.8-.8c.1-.8.7-1.8 2-1.8 1.5 0 1.8 1.3 1.8 1.8h-3.8zm6.4 2.1c0 .6 0 1.2-.1 1.6h1l.1-1.1c.5.9 1.4 1.2 2.4 1.2 1.5 0 3.1-1.1 3.1-3.4 0-1.8-1.2-3.2-2.9-3.2-1.2 0-2 .5-2.4 1.2v-4.1h-1.2V70zm1.2-1.9c0-.2 0-.3.1-.5.3-1 1.1-1.5 2-1.5 1.3 0 2.1 1.1 2.1 2.3 0 1.5-.8 2.4-2.2 2.4-1 0-1.7-.7-2-1.4v-1.3zm12.4.6v-.5c0-1.1-.5-3-2.8-3-2 0-3.2 1.5-3.2 3.4s1.3 3.1 3.3 3.1c1.2 0 1.9-.3 2.3-.4l-.2-.8c-.5.2-1 .3-2 .3-1.3 0-2.3-.7-2.3-2.1h4.9zm-4.9-.8c.1-.8.7-1.8 2-1.8 1.5 0 1.8 1.3 1.8 1.8H182zm11.1 2.6c-.4.1-.9.3-1.6.3-1.4 0-2.4-.9-2.4-2.3 0-1.3.9-2.3 2.4-2.3.7 0 1.2.2 1.5.3l.3-.9c-.3-.2-1-.4-1.8-.4-2.2 0-3.6 1.4-3.6 3.3s1.3 3.2 3.4 3.2c1 0 1.7-.3 2-.4l-.2-.8zm-57.7-15.4v-.5c0-1.1-.5-3-2.8-3-2 0-3.2 1.5-3.2 3.4s1.3 3.1 3.3 3.1c1.2 0 1.9-.3 2.3-.4l-.2-.8c-.5.2-1 .3-2 .3-1.3 0-2.3-.7-2.3-2.1h4.9zm-4.8-.8c.1-.8.7-1.8 2-1.8 1.5 0 1.8 1.3 1.8 1.8h-3.8zm6.7-3.7v1.2h-1v.9h1V56c0 .7.1 1.3.5 1.6.3.3.7.5 1.3.5.5 0 .9-.1 1.1-.2l-.1-.9c-.2.1-.4.1-.7.1-.7 0-.9-.5-.9-1.3v-3.2h1.8v-.9h-1.8v-1.5l-1.2.4zm12-1.8v3.8c-.3-.5-1-1-2.1-1-1.7 0-3.1 1.3-3.1 3.4 0 1.8 1.3 3.2 3 3.2 1.1 0 2-.5 2.4-1.3l.1 1.2h1.1c0-.5-.1-1-.1-1.6v-7.6h-1.3v-.1zm0 6.4c0 .2 0 .3-.1.5-.2.8-1 1.5-1.9 1.5-1.4 0-2.1-1-2.1-2.3 0-1.4.8-2.4 2.1-2.4 1 0 1.7.6 1.9 1.3 0 .2.1.4.1.5v.9zm8.7-.1v-.5c0-1.1-.5-3-2.8-3-2 0-3.2 1.5-3.2 3.4s1.3 3.1 3.3 3.1c1.2 0 1.9-.3 2.3-.4l-.2-.8c-.5.2-1 .3-2 .3-1.3 0-2.3-.7-2.3-2.1h4.9zm-4.9-.8c.1-.8.7-1.8 2-1.8 1.5 0 1.8 1.3 1.8 1.8h-3.8zm6 3.4c.5.3 1.2.5 1.9.5 1.6 0 2.5-.8 2.5-1.9 0-.9-.6-1.5-1.7-1.9-.9-.3-1.3-.5-1.3-1.1 0-.5.4-.9 1.1-.9.7 0 1.2.2 1.4.4l.3-.8c-.4-.2-1-.4-1.7-.4-1.5 0-2.3.9-2.3 1.9 0 .8.6 1.4 1.8 1.8.9.3 1.3.5 1.3 1.1 0 .5-.4.9-1.3.9-.6 0-1.3-.2-1.7-.5l-.3.9zm9 .3h1.2v-9.2h-1.2V58zm8.7-2.9v-.5c0-1.1-.5-3-2.8-3-2 0-3.2 1.5-3.2 3.4s1.3 3.1 3.3 3.1c1.2 0 1.9-.3 2.3-.4l-.2-.8c-.5.2-1 .3-2 .3-1.3 0-2.3-.7-2.3-2.1h4.9zm-4.9-.8c.1-.8.7-1.8 2-1.8 1.5 0 1.8 1.3 1.8 1.8h-3.8zm6.7-3.7v1.2h-1v.9h1V56c0 .7.1 1.3.5 1.6.3.3.7.5 1.3.5.5 0 .9-.1 1.1-.2l-.1-.9c-.2.1-.4.1-.7.1-.7 0-.9-.5-.9-1.3v-3.2h1.8v-.9h-1.8v-1.5l-1.2.4zm4.6 0v1.2h-1v.9h1V56c0 .7.1 1.3.5 1.6.3.3.7.5 1.3.5.5 0 .9-.1 1.1-.2l-.1-.9c-.2.1-.4.1-.7.1-.7 0-.9-.5-.9-1.3v-3.2h1.8v-.9h-1.8v-1.5l-1.2.4zm4.3 7.4h1.2v-3.8c.2-.9.8-1.5 1.6-1.5h.5v-1.1h-.4c-.8 0-1.6.5-1.9 1.5v-1.3h-1c0 .6.1 1.2.1 2l-.1 4.2zm10-2.9v-.5c0-1.1-.5-3-2.8-3-2 0-3.2 1.5-3.2 3.4s1.3 3.1 3.3 3.1c1.2 0 1.9-.3 2.3-.4l-.2-.8c-.5.2-1 .3-2 .3-1.3 0-2.3-.7-2.3-2.1h4.9zm-4.9-.8c.1-.8.7-1.8 2-1.8 1.5 0 1.8 1.3 1.8 1.8h-3.8zm6 3.4c.5.3 1.2.5 1.9.5 1.6 0 2.5-.8 2.5-1.9 0-.9-.6-1.5-1.7-1.9-.9-.3-1.3-.5-1.3-1.1 0-.5.4-.9 1.1-.9.7 0 1.2.2 1.4.4l.3-.8c-.4-.2-1-.4-1.7-.4-1.5 0-2.3.9-2.3 1.9 0 .8.6 1.4 1.8 1.8.9.3 1.3.5 1.3 1.1 0 .5-.4.9-1.3.9-.6 0-1.3-.2-1.7-.5l-.3.9zm-63.9-22.6V39c-.3-.5-1-1-2.1-1-1.7 0-3.1 1.3-3.1 3.4 0 1.8 1.3 3.2 3 3.2 1.1 0 2-.5 2.4-1.3l.1 1.2h1.1c0-.5-.1-1-.1-1.6v-7.6h-1.3v-.2zm0 6.5c0 .2 0 .3-.1.5-.2.8-1 1.5-1.9 1.5-1.4 0-2.1-1-2.1-2.3 0-1.4.8-2.4 2.1-2.4 1 0 1.7.6 1.9 1.3 0 .2.1.4.1.5v.9zm8.7-.1V41c0-1.1-.5-3-2.8-3-2 0-3.2 1.5-3.2 3.4s1.3 3.1 3.3 3.1c1.2 0 1.9-.3 2.3-.4l-.2-.8c-.5.2-1 .3-2 .3-1.3 0-2.3-.7-2.3-2.1h4.9zm-4.9-.9c.1-.8.7-1.8 2-1.8 1.5 0 1.8 1.3 1.8 1.8h-3.8zm6 3.4c.5.3 1.2.5 1.9.5 1.6 0 2.5-.8 2.5-1.9 0-.9-.6-1.5-1.7-1.9-.9-.3-1.3-.5-1.3-1.1 0-.5.4-.9 1.1-.9.7 0 1.2.2 1.4.4l.3-.8c-.4-.2-1-.4-1.7-.4-1.5 0-2.3.9-2.3 1.9 0 .8.6 1.4 1.8 1.8.9.3 1.3.5 1.3 1.1 0 .5-.4.9-1.3.9-.6 0-1.3-.2-1.7-.5l-.3.9zm13.7-3.4c0-1.2-.4-2.7-2.6-2.7-.8 0-1.7.2-2.3.6l.3.8c.5-.3 1.2-.5 1.8-.5 1.4 0 1.6 1 1.6 1.4v.1c-2.7 0-4.1.8-4.1 2.3 0 .8.6 1.8 2 1.8 1 0 1.8-.5 2.1-1l.1.8h1.1c-.1-.4-.1-1-.1-1.5v-2.1h.1zm-1.1 1.6c0 .1 0 .2-.1.4-.2.5-.8 1.1-1.7 1.1-.6 0-1.2-.4-1.2-1.1 0-1.2 1.5-1.4 2.9-1.4v1h.1zm3.1 2.1h1.2v-3.8c.2-.9.8-1.5 1.6-1.5h.5v-1h-.4c-.8 0-1.6.5-1.9 1.5v-1.3h-1c0 .6.1 1.2.1 2l-.1 4.1zm5.1-7.4v1.2h-1v.9h1v3.3c0 .7.1 1.3.5 1.6.3.3.7.5 1.3.5.5 0 .9-.1 1.1-.2l-.1-.9c-.2.1-.4.1-.7.1-.7 0-.9-.5-.9-1.3V39h1.8v-.9h-1.8v-1.5l-1.2.3zm3.9 7.1c.5.3 1.2.5 1.9.5 1.6 0 2.5-.8 2.5-1.9 0-.9-.6-1.5-1.7-1.9-.9-.3-1.3-.5-1.3-1.1 0-.5.4-.9 1.1-.9.7 0 1.2.2 1.4.4l.3-.8c-.4-.2-1-.4-1.7-.4-1.5 0-2.3.9-2.3 1.9 0 .8.6 1.4 1.8 1.8.9.3 1.3.5 1.3 1.1 0 .5-.4.9-1.3.9-.6 0-1.3-.2-1.7-.5l-.3.9zm-32.7-14.5c-.5.3-1.4.4-2.1.4-2.4 0-3.7-1.5-3.7-3.5 0-2.2 1.4-3.6 3.8-3.6.8 0 1.5.2 2 .4l.3-.9c-.3-.2-1.1-.4-2.4-.4-3.1 0-5 2.1-5 4.6 0 2.8 2 4.4 4.7 4.4 1.2 0 2.2-.2 2.6-.5l-.2-.9zm4.4 1.4c1.7 0 3.4-1.1 3.4-3.3 0-1.8-1.3-3.2-3.3-3.2-1.9 0-3.4 1.3-3.4 3.3 0 1.9 1.4 3.2 3.3 3.2zm0-.9c-1.2 0-2.1-.9-2.1-2.4 0-1.3.7-2.4 2.2-2.4 1.5 0 2.2 1.3 2.2 2.4-.1 1.5-1.1 2.4-2.3 2.4zm5 .7h1.2V27c0-.2 0-.4.1-.5.2-.6.9-1.2 1.7-1.2 1.2 0 1.6.9 1.6 2v3.4h1.2v-3.6c0-2.3-1.6-2.8-2.4-2.8-1.2 0-1.9.7-2.3 1.3l-.1-1.1h-1c0 .5.1 1.1.1 1.7v4.5h-.1zm7.3-.3c.5.3 1.2.5 1.9.5 1.6 0 2.5-.8 2.5-1.9 0-.9-.6-1.5-1.7-1.9-.9-.3-1.3-.5-1.3-1.1 0-.5.4-.9 1.1-.9.7 0 1.2.2 1.4.4l.3-.8c-.4-.2-1-.4-1.7-.4-1.5 0-2.3.9-2.3 1.9 0 .8.6 1.4 1.8 1.8.9.3 1.3.5 1.3 1.1 0 .5-.4.9-1.3.9-.6 0-1.3-.2-1.7-.5l-.3.9zm11.5-2.6v-.5c0-1.1-.5-3-2.8-3-2 0-3.2 1.5-3.2 3.4s1.3 3.1 3.3 3.1c1.2 0 1.9-.3 2.3-.4l-.2-.8c-.5.2-1 .3-2 .3-1.3 0-2.3-.7-2.3-2.1h4.9zm-4.8-.8c.1-.8.7-1.8 2-1.8 1.5 0 1.8 1.3 1.8 1.8h-3.8zm7.6 3.7v-6.2h-1.2v6.2h1.2zm-.6-7.4c.5 0 .8-.3.8-.7 0-.4-.3-.7-.8-.7s-.8.3-.8.7c0 .4.3.7.8.7zm2.6 7.4h1.2v-9.2h-1.2v9.2zM47.8 25.5c-.4 1.3-.7 3-1.1 4.3l-1.3 4.8h5L49 29.8c-.5-1.3-.9-3-1.2-4.3zm39.1-.2c-3.5 0-5.5 3.4-5.5 7.6 0 4.3 2 7.5 5.4 7.5 3.4 0 5.4-3.2 5.4-7.6.1-4.1-1.9-7.5-5.3-7.5zM85.9 0H23.7L0 13.7 40.6 84l70.2-40.5L85.9 0zM30.5 40.3c1.6 0 3.2-.3 4.3-.7l.8 4c-.9.5-3 1-5.8 1C22 44.6 18 39.7 18 33.3c0-7.7 5.5-11.9 12.3-11.9 2.6 0 4.7.5 5.5 1l-1 4c-1-.4-2.5-.8-4.3-.8-4 0-7.2 2.4-7.2 7.5 0 4.3 2.7 7.2 7.2 7.2zm22.3 3.9L51 38.4h-6.5L43 44.2h-5.3l6.9-22.5h6.7l7 22.5h-5.5zm22.9 0H61.6V21.6h5.1v18.3h9v4.3zm11.7.7c-.5-.2-1-.3-1.6-.4-5.1-.3-9.8-4.1-9.8-11.4 0-6.8 4.3-11.8 11-11.8 6.9 0 10.6 5.2 10.6 11.4 0 5.1-2.4 8.7-5.3 10v.1c1.7.5 3.7.9 5.4 1.3L96.3 48c-3.2-.9-5.9-1.9-8.9-3.1z" style="fill:#fff"/></svg>