<svg version="1.1" id="Layer_1" xmlns="http://www.w3.org/2000/svg" x="0" y="0" viewBox="0 0 606.6 193.2" style="enable-background:new 0 0 606.6 193.2" xml:space="preserve"><style>.st0{fill:#9d8b02}</style><path class="st0" d="M138.6 58.5h3.5c1.4 0 2.6-.2 3.5-.5.9-.3 1.7-.8 2.2-1.3.5-.6.9-1.2 1.1-2s.3-1.5.3-2.4c0-.8-.1-1.5-.3-2.2s-.6-1.3-1.1-1.9c-.5-.5-1.3-1-2.2-1.3-.9-.3-2.1-.5-3.6-.5h-6.6v19.1h3.2v-7zm0-9.3h3.4c.8 0 1.5.1 2 .2s.9.3 1.3.6.5.6.7 1c.1.4.2.9.2 1.4 0 .5-.1 1-.2 1.4s-.3.8-.6 1.1c-.3.3-.7.5-1.2.7s-1.2.2-2 .2h-3.4v-6.6zM159.5 66.1c1.1 0 2.1-.1 3-.4.9-.3 1.7-.8 2.4-1.4.7-.6 1.2-1.5 1.5-2.5.4-1 .5-2.3.5-3.8V46.5h-3.2V58c0 1.8-.3 3.1-.9 4-.6.9-1.7 1.3-3.2 1.3-1.5 0-2.6-.4-3.3-1.3-.6-.9-1-2.2-1-4V46.5h-3.2v11.4c0 2.8.6 4.9 1.9 6.2 1.2 1.3 3.1 2 5.5 2zM184.2 57.5c-.2-.4-.5-.7-.9-1.1-.4-.3-.9-.6-1.5-.9.9-.4 1.6-1 1.9-1.7s.5-1.4.5-2.2c0-.7-.1-1.3-.3-2s-.6-1.1-1.1-1.6-1.2-.8-2.1-1.1c-.9-.3-2-.4-3.4-.4h-6.6v19.1h7.1c1.3 0 2.4-.1 3.3-.4s1.6-.7 2.2-1.2c.6-.5.9-1.1 1.2-1.8.2-.7.4-1.4.4-2.2 0-.4 0-.9-.1-1.3-.2-.5-.3-.9-.6-1.2zm-10.3-8.4h3.4c1.4 0 2.4.2 3 .6.6.4.9 1.1.9 2 0 .9-.2 1.5-.7 2-.5.5-1.4.7-2.6.7h-3.8v-5.3zm7.6 12.1c-.1.4-.3.7-.6 1-.3.3-.7.5-1.2.6-.5.1-1.1.2-1.9.2H174v-6h4.1c1.3 0 2.3.3 2.8.8s.8 1.2.8 2.2c0 .4-.1.8-.2 1.2zM200.5 62.8h-9.4V46.5h-3.2v19.1h12.2zM203.2 46.5h3.2v19.1h-3.2zM212 63.4c.7.9 1.6 1.5 2.7 2s2.3.7 3.7.7c1.2 0 2.3-.2 3.3-.5s1.7-.8 2.4-1.5c.7-.6 1.2-1.4 1.5-2.2.4-.8.6-1.8.7-2.8H223c-.1.6-.2 1.2-.4 1.7s-.5.9-.8 1.3c-.4.4-.8.6-1.3.8-.5.2-1.2.3-1.9.3-.8 0-1.6-.2-2.2-.5-.7-.3-1.2-.8-1.7-1.4-.5-.6-.8-1.4-1.1-2.3-.2-.9-.4-1.9-.4-3s.1-2.1.3-3 .6-1.7 1-2.3c.5-.6 1-1.1 1.7-1.5.7-.3 1.4-.5 2.3-.5.7 0 1.3.1 1.8.3.5.2.9.5 1.3.8.3.3.6.8.8 1.3.2.5.4 1.1.5 1.7l3.2-.5c-.2-1-.5-1.8-.8-2.6-.4-.8-.9-1.5-1.5-2-.6-.6-1.4-1-2.2-1.3s-1.9-.5-3.1-.5c-1.3 0-2.5.2-3.5.7s-2 1.1-2.8 2c-.8.9-1.4 1.9-1.8 3.2-.4 1.2-.6 2.7-.6 4.2s.2 2.9.6 4.2c.3 1.3.9 2.3 1.6 3.2zM12.9 131.6c-.6-.5-1.2-.7-1.9-.7-.5 0-1.1.1-1.7.3s-1.3.5-1.9.8c-1 .6-2.1 1.4-3.2 2.4s-1.9 2.1-2.5 3c-.8 1.4-1.3 2.6-1.6 3.7-.2 1.1-.2 2.2.1 3.2.2.7.6 1.2 1.3 1.7.7.5 1.4.7 2.1.7.4 0 .8-.1 1.2-.2.4-.1 1.1-.5 2-1 1.2-.7 2.3-1.4 3.3-2.3 1-.9 1.7-1.8 2.3-2.7.8-1.4 1.4-2.7 1.6-4 .3-1.3.3-2.3 0-3.1-.1-.7-.5-1.3-1.1-1.8zm-1.5 6.5c-.4 1.3-.9 2.6-1.5 3.7-.4.8-.8 1.4-1.2 1.9-.4.5-.7.8-1.1 1-.5.2-1 .3-1.4.4s-.8.2-1.2.2c-.7 0-1.2-.2-1.7-.5-.4-.4-.8-.9-1-1.6-.1-1.1.1-2.4.5-3.7.4-1.4 1.1-2.7 1.9-4.1.5-.8 1-1.5 1.5-2.1s1-1 1.4-1.3c.1 0 .3-.1.5-.1h.5c.9 0 1.7.2 2.2.7.5.5.8 1.2.9 2.1.2 1 .1 2.1-.3 3.4zM32.9 131.2c-.2 0-.4 0-.6.1-.2 0-.5.1-.8.2-.1.1-.2.3-.3.4-.1.2-.2.5-.5.9-.4.8-.8 1.4-1 1.8-.3.4-.5.8-.7 1.2-1.8 2.5-3.6 4.7-5.5 6.5-1.9 1.9-3.2 2.8-4 2.8-.4-.1-.7-.3-.9-.5-.2-.2-.3-.5-.3-.8.2-.5.6-1.3 1.3-2.4.7-1.2 1.1-2 1.4-2.4 1-1.9 1.7-3.1 2-3.7s.4-1 .4-1.3c0-.7-.2-1.3-.6-2-.4-.6-.8-1-1.2-1h-.3c-.1 0-.2.1-.3.1-.8.4-1.6 1-2.5 1.7-.9.7-1.7 1.4-2.4 2.1l.2.2c.5-.6 1.2-1.1 1.8-1.6.7-.5 1.2-.8 1.7-.9.3.1.5.2.7.4.2.2.3.4.3.7 0 .4-.1.8-.3 1.4-.2.6-.8 1.7-1.7 3.3-.3.5-.9 1.5-1.8 3.1s-1.4 2.6-1.3 3c.1.5.4 1 .9 1.3s1 .6 1.5.7c1-.2 2.4-1.2 4.4-3 1.9-1.8 3.8-3.9 5.7-6.2-1.5 2.5-2.3 4.1-2.7 4.9-.3.8-.5 1.3-.4 1.7 0 .5.2.9.4 1.4s.5.8.8 1c0 0 .2.1.4.1h1c.1 0 .2 0 .3-.1.7-.4 1.4-.9 2.2-1.5s1.6-1.4 2.5-2.2l-.2-.2c-.5.6-1.2 1.1-1.9 1.6s-1.3.8-1.8 1c-.3-.1-.6-.3-.9-.5s-.4-.5-.3-.7c0-.5.3-1.3.8-2.3.5-1 1.1-2.3 2-3.8.5-.9 1.1-1.9 1.7-2.8.6-1 1.1-1.8 1.6-2.4.2-.4.2-.7.1-.9-.2-.3-.5-.4-.9-.4zM83.4 152.2c-.2 0-.4.1-.4.3l-.6 5.8c-.5 3.9-2 7.3-4.6 10.3-2.5 2.9-5.4 4.4-8.7 4.4h-1.8c-.8 0-2.3-.1-4.5-.1h-6c.1-.6.2-1.8.4-3.6.1-1.7.2-3.7.2-5.9v-23.7c0-1.6.1-2.9.1-3.8 0-1 .1-1.8.2-2.5.2-1.3.5-2.2 1-2.7s1.5-.7 3.1-.7h1.8c.3 0 .4-.1.4-.3s-.1-.3-.4-.3H62c-.7 0-1.8 0-3.4.1-1 0-1.7.1-2.1.1h-2c-.7 0-1.8 0-3.6-.1-1.2 0-1.9-.1-2.3-.1h-.7c-.3 0-.4.1-.4.3s.1.3.4.3c2.1 0 3.3.3 3.7.8.4.5.5 2.2.5 5v2.4c0 .9.1 2.5.1 4.6v18.9c0 1.3-.1 2.4-.1 3.3-.1 1.5-.2 2.7-.3 3.6-.1.9-.2 1.6-.4 2.1-.3 1.1-.6 1.9-1.1 2.2-.5.4-1.5.6-3 .6-.3 0-.5.1-.5.2 0 .2.2.2.5.2l9-.2c3.8 0 7 .1 9.7.1 2.7 0 4.8.1 6.3.1 2.4 0 4.4 0 6-.1 1.6-.1 2.4-.2 2.5-.3.2-.2.5-1.3.8-3.4.3-2.1.7-5.9 1.3-11.5l.6-5.9c.2-.3.1-.5-.1-.5zM93.3 128.9c-1.2 0-2.1.3-2.8 1-.7.6-1.1 1.5-1.1 2.4 0 .9.3 1.5.9 2 .6.5 1.5.9 2.9 1.2 1.3.3 2.2.6 2.6.9.4.3.6.8.6 1.5 0 .8-.4 1.6-1.2 2.2-.8.7-1.9 1.3-3.3 1.7-.1.1-.2.2-.1.3 0 .1.1.1.3.1 2.1-.7 3.6-1.7 4.6-2.9 1-1.3 1.6-2.8 1.6-4.6 0-1.7-.5-3.1-1.4-4.2-.9-1-2.1-1.6-3.6-1.6zM156.1 123.6c-3.3-2.1-7.3-3.1-12.1-3.1-2.3 0-4.8.4-7.5 1.3s-5.4 2.1-8.1 3.7c-2.9 1.7-5.7 3.7-8.3 6.1-2.6 2.4-4.8 4.8-6.5 7.4-2.4 3.5-4 7.2-4.8 11.3-.8 4.1-.6 7.9.5 11.4 1.2 3.9 3.4 6.9 6.6 9 3.2 2.1 7.2 3.2 12 3.2 2.6 0 5.4-.5 8.3-1.4s5.9-2.3 8.8-4.1c2.7-1.6 5.2-3.6 7.6-5.8 2.4-2.2 4.4-4.6 6.1-7 2.4-3.5 4-7.3 4.8-11.4.8-4.1.6-7.9-.5-11.4-1.4-4.1-3.7-7.1-6.9-9.2zm2.2 22.9c-.8 4-2.4 7.8-4.6 11.3-1.4 2.2-2.8 4.2-4.4 5.8-1.6 1.6-3.2 3-5 4.1-2 1.2-4 2.1-6.2 2.7-2.2.6-4.4.9-6.7.9-4.7 0-8.5-1.2-11.5-3.4s-5-5.3-6-9.2c-.8-3.4-.8-7 0-11s2.4-7.7 4.6-11.3c1.5-2.4 3.1-4.5 4.7-6.3 1.6-1.7 3.4-3.2 5.4-4.3 1.8-1.1 3.8-1.9 5.8-2.4s4.2-.8 6.4-.8c4.6 0 8.4 1.1 11.4 3.3 3 2.2 5 5.3 6 9.4.9 3.6.9 7.3.1 11.2zM183.3 141.3c-.5-.2-1.2-.3-2.1-.3-.6 0-1.3.1-1.9.3s-1.2.5-1.8.8c-1.2.8-2.2 1.6-2.8 2.5-.6.9-1.1 1.8-1.4 2.9-.1-1.1-.5-2.2-1-3.3-.5-1.1-1.1-2-1.8-2.6l-.2-.2s-.1 0-.2.1c-.5.5-1.1 1-2 1.5-.9.5-1.7.9-2.4 1.2-.1 0-.1.1-.1.2s0 .1.1.2c1 .9 1.8 1.8 2.2 2.6.5.8.7 1.5.7 2.3V166c0 1.2 0 2.2-.1 2.9 0 .7-.1 1.3-.1 1.8-.2.9-.5 1.5-.9 1.8-.4.3-1.2.5-2.5.5-.3 0-.4.1-.4.3s.1.3.4.3h1.4c.5 0 1.5 0 2.8-.1.8 0 1.4-.1 1.7-.1H175.2c.8 0 1.3.1 1.5.1h.5c.3 0 .4-.1.4-.3s-.1-.3-.4-.3h-3.9v-21.5c0-1.7.1-2.9.2-3.7.1-.7.4-1.3.7-1.6.3-.3.7-.6 1.3-.7.6-.1 1.5-.2 2.9-.2h2.4c.9 0 1.7-.4 2.3-1.1.6-.7.9-1.5.9-2.2 0-.1-.2-.4-.7-.6zM189.9 129.8c-.6.7-1 1.5-1 2.4 0 .9.3 1.7 1 2.4s1.4 1 2.4 1c.9 0 1.7-.3 2.4-1 .7-.6 1-1.4 1-2.4 0-.9-.3-1.7-1-2.4s-1.5-1-2.4-1c-.9 0-1.7.3-2.4 1zM199.2 173.4c0-.2-.1-.3-.4-.3-1.7 0-2.7-.3-3.2-1-.4-.7-.7-2.5-.7-5.5v-25.2c0-.1-.2-.3-.5-.4-.3-.1-.5-.1-.7-.1-1.5 1-2.8 1.8-4 2.3-1.2.6-2.6 1-4 1.3-.3 0-.4.1-.3.3.1.2.2.2.5.2 1.8-.4 3-.3 3.4.3.4.6.7 1.9.7 4.1v17.1c0 3-.2 4.8-.7 5.5-.4.7-1.5 1-3.2 1-.3 0-.4.1-.4.3s.1.3.4.3h1.4c.5 0 1.5 0 2.7-.1.8 0 1.4-.1 1.7-.1h1.2c.3 0 .8 0 1.6.1 1.2 0 2 .1 2.6.1h1.4c.4.1.5 0 .5-.2zM219.7 141.7c1.2.1 3 .3 5.4.6 1.3.2 2.2.3 2.7.3s.9.1 1.1.1c.8 0 1.4-.3 2-1 .6-.7.9-1.3.9-2 0-.3-.2-.5-.5-.7-.4-.2-.8-.3-1.3-.3-.2 0-.5 0-.9.1s-1.2.2-2.3.5c-3 .7-5.4 1.2-7.2 1.4-1.8.3-3.4.4-4.9.4-3.8 0-6.9 1.1-9.5 3.4-2.6 2.2-3.9 5-3.9 8.2 0 2.9.8 5.2 2.4 7.1 1.6 1.9 3.8 3 6.7 3.6-2.6.4-4.8 1.2-6.5 2.3-1.7 1.2-2.6 2.5-2.6 3.9s.7 2.4 2.1 3.1c1.4.7 3.6 1.1 6.5 1.3-3 1.1-5.6 2.6-7.7 4.7-2.1 2.1-3.1 4.2-3.1 6.4 0 2.4 1 4.4 2.9 5.9s4.5 2.3 7.7 2.2c2.3 0 4.6-.4 7.1-1.2 2.5-.8 4.8-1.9 7-3.4 2.5-1.7 4.5-3.5 6-5.6 1.5-2.1 2.2-4.2 2.2-6.2 0-2.1-.9-3.8-2.6-5.1-1.8-1.2-4.2-1.9-7.4-1.9h-8.6c-3.4 0-5.7-.2-6.8-.6-1.1-.4-1.7-1.1-1.7-2.1 0-.9.7-1.7 2.1-2.3 1.4-.6 3.2-1 5.5-1.2.1 0 .3.1.4.1h.7c4 0 7.3-1 9.8-3 2.5-2 3.8-4.7 3.8-8 0-2.9-.9-5.4-2.8-7.4s-4.4-3.2-7.6-3.6v-.1c.6-.1 1.7 0 2.9.1zm-8.4 32.3h8.2c3.8 0 6.4.4 8 1.3 1.6.9 2.4 2.3 2.4 4.3 0 2.7-1.6 5.1-4.9 7.1-3.3 2-7 3-11.3 3-3.8 0-6.7-.6-8.8-1.9-2.1-1.2-3.1-3-3.1-5.3 0-1.8.8-3.4 2.5-5s3.9-2.8 6.8-3.6c.1.1.2.1.2.1zm8.6-29.1c1.5 2.1 2.2 4.6 2.2 7.7 0 3.3-.7 5.9-2.1 7.7-1.4 1.8-3.4 2.7-6 2.7-2.5 0-4.4-1-5.8-2.9-1.4-2-2.1-4.6-2.1-8 0-3.4.7-6 2.1-7.7 1.4-1.7 3.4-2.6 6.2-2.6 2.2 0 4.1 1 5.5 3.1zM236.6 129.8c-.6.7-1 1.5-1 2.4 0 .9.3 1.7 1 2.4s1.4 1 2.4 1c.9 0 1.7-.3 2.4-1 .7-.6 1-1.4 1-2.4 0-.9-.3-1.7-1-2.4s-1.5-1-2.4-1c-1 0-1.7.3-2.4 1zM245.5 173.1c-1.7 0-2.7-.3-3.2-1-.4-.7-.7-2.5-.7-5.5v-25.2c0-.1-.2-.3-.5-.4-.3-.1-.5-.1-.7-.1-1.5 1-2.8 1.8-4 2.3-1.2.6-2.6 1-4 1.3-.3 0-.4.1-.3.3.1.2.2.2.5.2 1.8-.4 3-.3 3.4.3.4.6.7 1.9.7 4.1v17.1c0 3-.2 4.8-.7 5.5-.4.7-1.5 1-3.2 1-.3 0-.4.1-.4.3s.1.3.4.3h1.4c.5 0 1.5 0 2.7-.1.8 0 1.4-.1 1.7-.1h1.2c.3 0 .8 0 1.6.1 1.2 0 2 .1 2.6.1h1.4c.3 0 .4-.1.4-.3s0-.2-.3-.2zM280 173.1c-1 0-1.7-.1-2.1-.4-.3-.3-.6-.8-.8-1.4-.1-.4-.2-1-.2-1.6 0-.6-.1-1.4-.1-2.3V154c0-4.3-.9-7.6-2.6-9.7-1.7-2.2-4.3-3.3-7.9-3.3-2.3 0-4.4.6-6.3 1.7-1.9 1.1-3.8 2.9-5.6 5.3 0-1.1-.3-2.3-.8-3.5s-1.1-2.2-1.9-2.9c-.1-.1-.2-.1-.2-.2 0 0-.1 0-.2.1-.4.4-1.1.9-2 1.4-.9.5-1.8.9-2.7 1.3-.1 0-.1.1-.1.2s0 .1.1.2c1 .9 1.8 1.8 2.2 2.6.5.8.7 1.5.7 2.3V166c0 3.3-.2 5.3-.5 6-.3.7-1.1 1-2.4 1-.3 0-.4.1-.4.3s.1.3.4.3h1.4c.6 0 1.4 0 2.6-.1.8 0 1.3-.1 1.6-.1H256c.6 0 1.1.1 1.3.1h.4c.3 0 .4-.1.4-.3s-.1-.3-.4-.3h-3.3v-24.4c1.6-2.1 3.1-3.6 4.6-4.5 1.5-.9 3.2-1.3 5.1-1.3 2.4 0 4.3.9 5.7 2.7 1.3 1.8 2 4.4 2.1 7.8v13.7c0 2.5-.2 4.2-.5 4.9-.4.8-1.3 1.2-2.7 1.2-.3 0-.4.1-.4.3s.1.3.4.3h1.3c.5 0 1.2 0 2.2-.1.6 0 1.1-.1 1.3-.1H277.8c.8 0 1.3.1 1.5.1h.5c.3 0 .4-.1.4-.3s.1-.1-.2-.1zM317.4 157.7c-.2-.1-.3.1-.5.5-2 4.3-4.3 7.4-6.9 9.4-2.6 2-5.7 3-9.2 3-4.4 0-8-1.4-11-4.1-3-2.7-4.5-6-4.5-10 0-.9.1-1.8.2-2.6s.2-1.6.4-2.3h21.9c.9 0 1.5-.2 1.9-.5.4-.3.7-.8.8-1.5.2-1.2-.1-2.4-.7-3.7-.6-1.2-1.6-2.3-2.8-3.1-.9-.6-2.1-1.1-3.3-1.4-1.3-.3-2.7-.5-4.3-.5-2.2 0-4.4.5-6.5 1.4-2.2 1-4.1 2.3-5.8 4.1-1.8 1.8-3.1 3.7-4 5.9-.9 2.2-1.4 4.4-1.4 6.6 0 4.5 1.5 8.2 4.5 11.1 3 2.9 6.8 4.3 11.6 4.3 1.7 0 3.4-.2 5-.7 1.6-.5 3.2-1.3 4.7-2.3 2.1-1.4 4-3.2 5.7-5.4 1.8-2.2 3.2-4.8 4.4-7.6 0-.3 0-.5-.2-.6zm-27.2-13c2-1.5 4.4-2.3 7.3-2.3 2.1 0 3.9.6 5.3 1.8 1.4 1.2 2.1 2.5 2.1 4.1 0 .4-.1.8-.2 1.2-.1.4-.2.7-.4.9-.1.1-.4.2-1 .4s-1.1.2-1.5.2h-2.1c-.7 0-2 .1-3.6.1-2.4 0-4.2.1-5.7.1h-4.3c.7-2.8 2.1-5 4.1-6.5zM361.9 173.1c-1.5 0-2.4-.3-2.7-1-.4-.6-.5-2.7-.5-6.1v-44c0-.1-.2-.3-.5-.4-.4-.1-.6-.1-.7-.1-1.5.9-2.8 1.5-4 2-1.2.4-2.4.8-3.7 1-.3 0-.4.2-.4.4s.1.3.4.2c1.3-.3 2.2-.3 2.7-.2.5.1.8.4 1 1 .2.4.3.9.4 1.6.1.7.1 1.5.1 2.6v14c-1.3-1-2.6-1.7-4-2.2-1.4-.5-2.8-.8-4.2-.8-4.9 0-9.2 1.8-12.9 5.4-3.7 3.6-5.5 7.9-5.5 12.9 0 4.3 1.3 7.9 3.9 10.7s5.8 4.3 9.6 4.3c2.5 0 5-.6 7.3-1.9 2.4-1.3 4.3-3 5.8-5.3 0 .9 0 1.8-.1 2.7s-.2 2-.3 3.2c0 .3-.1.4-.1.5v.2c0 .3.1.4.2.5.1.1.3.1.6.1 1.2-.3 2.3-.4 3.5-.5 1.1-.1 2.5-.1 4.3-.1.3 0 .4-.1.4-.3s-.3-.4-.6-.4zm-8-7c-1 1.8-2.4 3.3-4.3 4.5-1.8 1.1-3.7 1.7-5.6 1.7-3.6 0-6.5-1.5-8.8-4.6-2.3-3-3.4-6.7-3.4-11 0-4.6 1-8.1 2.9-10.6s4.7-3.7 8.3-3.7c1.7 0 3.4.5 5.1 1.4 1.7 1 3.7 2.6 5.8 4.9v17.4zM396.1 173.1c-1.6 0-2.5-.4-2.9-1.1-.3-.7-.5-2.7-.5-6v-24.4c0-.1-.2-.3-.5-.4-.3-.1-.5-.1-.7-.1-1.4.8-2.7 1.4-3.9 1.8-1.2.4-2.5.8-3.8 1.1-.3 0-.4.2-.4.4s.1.3.4.2c1.4-.3 2.3-.3 2.7-.2.4.1.7.4 1 .9.2.3.3.8.4 1.5.1.7.1 1.5.1 2.6v17c-1.6 2.1-3.1 3.7-4.6 4.6-1.5.9-3.2 1.3-5.1 1.3-2.4 0-4.3-.9-5.6-2.7-1.3-1.8-2-4.4-2-7.8v-20.3c0-.1-.2-.3-.5-.4-.3-.1-.5-.1-.7-.1-1.4.8-2.7 1.4-3.9 1.8-1.3.4-2.6.8-3.9 1.1-.3 0-.4.2-.4.4s.1.3.4.2c1.4-.3 2.3-.3 2.7-.2.4.1.7.4 1 .9.2.3.3.8.4 1.5.1.7.1 1.5.1 2.6v11.8c0 4.4.9 7.6 2.6 9.8 1.7 2.2 4.3 3.2 7.8 3.2 2.3 0 4.4-.6 6.3-1.7 1.9-1.1 3.8-2.9 5.6-5.3 0 .9 0 1.7-.1 2.6-.1.9-.2 1.9-.4 3.1 0 .3-.1.4-.1.5v.2c0 .3 0 .5.1.5.1.1.2.1.4 0 2-.2 3.7-.4 5.1-.5 1.4-.1 2.5-.2 3.2-.2.2 0 .3-.1.3-.3s-.4.1-.6.1zM465.9 173.1c-1.5 0-2.4-.1-2.8-.3-.3-.3-.5-1-.5-2.3V154c0-4.3-.9-7.5-2.8-9.7-1.8-2.2-4.5-3.3-8-3.3-2.2 0-4.3.6-6.1 1.7-1.8 1.1-3.7 3-5.5 5.5-.7-2.4-1.9-4.1-3.6-5.4-1.7-1.2-3.8-1.8-6.2-1.8-2.2 0-4.2.6-6.1 1.7-1.8 1.1-3.6 2.9-5.4 5.4 0-1.2-.3-2.3-.8-3.6-.5-1.2-1.1-2.2-1.8-2.9-.1-.1-.2-.1-.2-.2 0 0-.1 0-.2.1-.4.4-1.1.9-2 1.4-.9.5-1.8.9-2.7 1.3-.1 0-.1.1-.1.2s0 .1.1.2c1 .9 1.8 1.8 2.2 2.6.5.8.7 1.5.7 2.3V169c0 .7-.1 1.2-.1 1.6-.1 1-.3 1.6-.6 2-.3.3-1.1.5-2.3.5-.3 0-.4.1-.4.3s.1.3.4.3h1.4c.5 0 1.4 0 2.6-.1.8 0 1.3-.1 1.6-.1h4c.7 0 1.1.1 1.4.1h.5c.3 0 .4-.1.4-.3s-.1-.3-.4-.3h-3.8v-24.4c1.6-2.2 3.1-3.8 4.5-4.6s2.9-1.3 4.8-1.3c2.4 0 4.2.9 5.4 2.7 1.2 1.8 1.9 4.4 1.9 7.8V169.6c0 .6-.1 1-.1 1.4-.1.8-.4 1.3-.8 1.6-.4.3-1.4.4-3 .4-.3 0-.4.1-.4.3s.1.3.4.3h1.4c.5 0 1.5 0 2.7-.1.8 0 1.3-.1 1.6-.1h4.6c.8 0 1.4.1 1.6.1h.5c.3 0 .4-.1.4-.3s-.1-.3-.4-.3c-1.7 0-2.8-.1-3.2-.4-.4-.3-.6-1.1-.6-2.2v-21.6c1.8-2.4 3.3-4 4.6-4.8 1.3-.8 2.9-1.2 4.6-1.2 2.5 0 4.4.9 5.9 2.7 1.4 1.8 2.1 4.4 2.1 7.7v12.8c0 1.7 0 2.9-.1 3.6 0 .7-.1 1.2-.2 1.6-.1.7-.4 1.2-.9 1.4-.5.3-1.6.4-3.3.4-.3 0-.4.1-.4.3s.1.3.4.3h1.5c.6 0 1.5 0 2.8-.1.9 0 1.4-.1 1.7-.1h4.4c.8 0 1.3.1 1.6.1h.5c.3 0 .4-.1.4-.3s.5 0 .2 0zM483.6 141c-4.8 0-8.8 1.7-12.1 5.1-3.2 3.4-4.9 7.5-4.9 12.2 0 4.7 1.5 8.5 4.5 11.5s6.8 4.5 11.4 4.5c4.6 0 8.5-1.7 11.8-5.2 3.3-3.5 5-7.4 5-11.9 0-4.8-1.5-8.7-4.4-11.7-2.8-3-6.6-4.5-11.3-4.5zm7.9 28.6c-1.8 2.7-4.4 4.1-7.8 4.1-3.4 0-6.2-1.6-8.4-4.8-2.2-3.2-3.3-7.1-3.3-11.6 0-5 .9-8.9 2.8-11.6 1.9-2.7 4.5-4 8-4 3.2 0 5.9 1.6 8.1 4.9 2.2 3.3 3.3 7.2 3.3 11.7 0 4.8-.9 8.6-2.7 11.3zM533.9 173.1c-1 0-1.7-.1-2.1-.4-.3-.3-.6-.8-.8-1.4-.1-.4-.2-1-.2-1.6 0-.6-.1-1.4-.1-2.3V154c0-4.3-.9-7.6-2.6-9.7-1.7-2.2-4.3-3.3-7.9-3.3-2.3 0-4.4.6-6.3 1.7-1.9 1.1-3.8 2.9-5.6 5.3 0-1.1-.3-2.3-.8-3.5s-1.1-2.2-1.9-2.9c-.1-.1-.2-.1-.2-.2 0 0-.1 0-.2.1-.4.4-1.1.9-2 1.4-.9.5-1.8.9-2.7 1.3-.1 0-.1.1-.1.2s0 .1.1.2c1 .9 1.8 1.8 2.2 2.6.5.8.7 1.5.7 2.3V166c0 3.3-.2 5.3-.5 6-.3.7-1.1 1-2.4 1-.3 0-.4.1-.4.3s.1.3.4.3h1.4c.6 0 1.4 0 2.6-.1.8 0 1.3-.1 1.6-.1H509.9c.6 0 1.1.1 1.3.1h.4c.3 0 .4-.1.4-.3s-.1-.3-.4-.3h-3.3v-24.4c1.6-2.1 3.1-3.6 4.6-4.5 1.5-.9 3.2-1.3 5.1-1.3 2.4 0 4.3.9 5.7 2.7 1.3 1.8 2 4.4 2.1 7.8v13.7c0 2.5-.2 4.2-.5 4.9-.4.8-1.3 1.2-2.7 1.2-.3 0-.4.1-.4.3s.1.3.4.3h1.3c.5 0 1.2 0 2.2-.1.6 0 1.1-.1 1.3-.1H531.7c.8 0 1.3.1 1.5.1h.5c.3 0 .4-.1.4-.3s.1-.1-.2-.1zM569.5 173.1c-1.5 0-2.4-.3-2.7-1-.4-.6-.5-2.7-.5-6.1v-44c0-.1-.2-.3-.5-.4-.4-.1-.6-.1-.7-.1-1.5.9-2.8 1.5-4 2-1.2.4-2.4.8-3.7 1-.3 0-.4.2-.4.4s.1.3.4.2c1.3-.3 2.2-.3 2.7-.2.5.1.8.4 1 1 .2.4.3.9.4 1.6.1.7.1 1.5.1 2.6v14c-1.3-1-2.6-1.7-4-2.2-1.4-.5-2.8-.8-4.2-.8-4.9 0-9.2 1.8-12.9 5.4-3.7 3.6-5.5 7.9-5.5 12.9 0 4.3 1.3 7.9 3.9 10.7s5.8 4.3 9.6 4.3c2.5 0 5-.6 7.3-1.9 2.4-1.3 4.3-3 5.8-5.3 0 .9 0 1.8-.1 2.7s-.2 2-.3 3.2c0 .3-.1.4-.1.5v.2c0 .3.1.4.2.5.1.1.3.1.6.1 1.2-.3 2.3-.4 3.5-.5 1.1-.1 2.5-.1 4.3-.1.3 0 .4-.1.4-.3s-.3-.4-.6-.4zm-8-7c-1 1.8-2.4 3.3-4.3 4.5-1.8 1.1-3.7 1.7-5.6 1.7-3.6 0-6.5-1.5-8.8-4.6-2.3-3-3.4-6.7-3.4-11 0-4.6 1-8.1 2.9-10.6s4.7-3.7 8.3-3.7c1.7 0 3.4.5 5.1 1.4 1.7 1 3.7 2.6 5.8 4.9v17.4zM606.5 157.7c-.2-.1-.3.1-.5.5-2 4.3-4.3 7.4-6.9 9.4-2.6 2-5.7 3-9.2 3-4.4 0-8-1.4-11-4.1-3-2.7-4.5-6-4.5-10 0-.9.1-1.8.2-2.6s.2-1.6.4-2.3h21.9c.9 0 1.5-.2 1.9-.5.4-.3.7-.8.8-1.5.2-1.2-.1-2.4-.7-3.7-.6-1.2-1.6-2.3-2.8-3.1-.9-.6-2.1-1.1-3.3-1.4-1.3-.3-2.7-.5-4.3-.5-2.2 0-4.4.5-6.5 1.4-2.2 1-4.1 2.3-5.8 4.1-1.8 1.8-3.1 3.7-4 5.9-.9 2.2-1.4 4.4-1.4 6.6 0 4.5 1.5 8.2 4.5 11.1 3 2.9 6.8 4.3 11.6 4.3 1.7 0 3.4-.2 5-.7 1.6-.5 3.2-1.3 4.7-2.3 2.1-1.4 4-3.2 5.7-5.4 1.8-2.2 3.2-4.8 4.4-7.6-.1-.3 0-.5-.2-.6zm-27.2-13c2-1.5 4.4-2.3 7.3-2.3 2.1 0 3.9.6 5.3 1.8 1.4 1.2 2.1 2.5 2.1 4.1 0 .4-.1.8-.2 1.2-.1.4-.2.7-.4.9-.1.1-.4.2-1 .4s-1.1.2-1.5.2h-2.1c-.7 0-2 .1-3.6.1-2.4 0-4.2.1-5.7.1h-4.3c.7-2.8 2.1-5 4.1-6.5zM283.4 47c-.9-.3-2.1-.5-3.6-.5h-6.6v19.1h3.2v-7.1h3.5c1.4 0 2.6-.2 3.5-.5s1.7-.8 2.2-1.3c.5-.6.9-1.2 1.1-2 .2-.7.3-1.5.3-2.4 0-.8-.1-1.5-.3-2.2-.2-.7-.6-1.3-1.1-1.9-.5-.4-1.3-.9-2.2-1.2zm.3 6.8c-.1.4-.3.8-.6 1.1-.3.3-.7.5-1.2.7-.5.2-1.2.2-2 .2h-3.4v-6.6h3.4c.8 0 1.5.1 2 .2s.9.3 1.3.6c.3.3.5.6.7 1 .1.4.2.9.2 1.4-.2.5-.3 1-.4 1.4zM290.2 65.6h3.2v-7.5h4.5l3.4 7.6h3.5l-4-8.3c1.1-.5 1.9-1.2 2.4-2s.7-1.9.7-3.1c0-.6-.1-1.3-.3-2-.2-.7-.6-1.3-1.1-1.8-.5-.5-1.3-1-2.2-1.3-.9-.3-2.1-.5-3.6-.5h-6.5v18.9zm3.1-16.4h3.3c.8 0 1.4.1 1.9.2s.9.3 1.2.6c.3.3.5.6.7.9.1.4.2.8.2 1.2 0 .5-.1.9-.2 1.3s-.3.7-.6 1c-.3.3-.7.5-1.1.6-.5.2-1.1.2-1.8.2h-3.6v-6zM307.3 46.5h3.2v19.1h-3.2zM327 46.5l-5.3 14.7-5.2-14.7h-3.6l7.2 19.1h3.1l7.3-19.1zM331.9 65.6l1.8-4.9h7.4l1.8 4.9h3.4L339 46.5h-3.2l-7.3 19.1h3.4zm5.4-15.4 2.8 7.9h-5.6l2.8-7.9zM350.6 65.6h3.2V49.3h6v-2.8h-15.2v2.8h6zM375.6 62.8h-10v-5.6h8.9v-2.8h-8.9v-5.1h9.5v-2.8h-12.7v19.1h12.8zM416.4 58.5h3.5c1.4 0 2.6-.2 3.5-.5s1.7-.8 2.2-1.3c.5-.6.9-1.2 1.1-2 .2-.7.3-1.5.3-2.4 0-.8-.1-1.5-.3-2.2-.2-.7-.6-1.3-1.1-1.9-.5-.5-1.3-1-2.2-1.3-.9-.3-2.1-.5-3.6-.5h-6.6v19.1h3.2v-7zm0-9.3h3.4c.8 0 1.5.1 2 .2s.9.3 1.3.6c.3.3.5.6.7 1 .1.4.2.9.2 1.4 0 .5-.1 1-.2 1.4-.1.4-.3.8-.6 1.1-.3.3-.7.5-1.2.7-.5.2-1.2.2-2 .2h-3.4v-6.6zM429.5 65.6l1.8-4.9h7.4l1.8 4.9h3.4l-7.3-19.1h-3.2l-7.3 19.1h3.4zm5.5-15.4 2.8 7.9h-5.6l2.8-7.9zM449.4 58.1h4.5l3.4 7.6h3.5l-4-8.3c1.1-.5 1.9-1.2 2.4-2s.7-1.9.7-3.1c0-.6-.1-1.3-.3-2-.2-.7-.6-1.3-1.1-1.8-.5-.5-1.3-1-2.2-1.3-.9-.3-2.1-.5-3.6-.5h-6.5v19.1h3.2v-7.7zm0-8.9h3.3c.8 0 1.4.1 1.9.2s.9.3 1.2.6c.3.3.5.6.7.9.1.4.2.8.2 1.2 0 .5-.1.9-.2 1.3s-.3.7-.6 1c-.3.3-.7.5-1.1.6-.5.2-1.1.2-1.8.2h-3.6v-6zM467.7 65.6h3.2V49.3h6v-2.8h-15.3v2.8h6.1zM489.6 62.5c-.3.3-.7.5-1.2.6-.5.2-1.1.2-1.8.2-1.5 0-2.6-.3-3.4-.9-.8-.6-1.2-1.5-1.3-2.7h-3.3c.1 2.2.9 3.7 2.3 4.8 1.4 1 3.3 1.5 5.7 1.5 1.2 0 2.2-.1 3.1-.4s1.7-.7 2.3-1.2c.6-.5 1.1-1.1 1.3-1.8.3-.7.4-1.4.4-2.2 0-1.7-.5-3-1.4-3.9-.9-.9-2.4-1.5-4.4-1.9l-2.6-.5c-1.1-.2-1.9-.6-2.4-1s-.7-1-.7-1.9c0-.3.1-.7.2-1 .1-.3.4-.6.7-.8.3-.2.7-.4 1.2-.6.5-.1 1.1-.2 1.9-.2 1.3 0 2.3.3 2.9.8.6.5 1 1.3 1.3 2.4l3-.5c-.1-.7-.3-1.4-.6-2-.3-.6-.7-1.2-1.3-1.7-.6-.5-1.3-.9-2.2-1.2s-2-.5-3.3-.5c-1 0-2 .1-2.9.3-.9.2-1.6.6-2.3 1-.6.5-1.1 1-1.5 1.7-.4.7-.5 1.5-.5 2.4s.1 1.7.4 2.3c.3.6.6 1.2 1.1 1.6.5.4 1.1.8 1.9 1.1.7.3 1.6.5 2.6.7l2.4.5c.6.1 1.1.3 1.5.4s.7.4.9.7c.2.2.4.5.5.8.1.3.1.6.1.9 0 .4-.1.8-.2 1.2.1.4-.1.7-.4 1zM213.7 104.2c.2.2.4.3.6.3.5.1 1.3-.1 1.6-.4 3.2-4.7 9.9-13.8 14.2-19.8 4.3-6.1 10.6-14.8 18.8-26.3 7.2-10.1 13.4-18.8 18.7-26 5.3-7.2 19.8-27.3 23.3-31.8-.5-.3-.9-.1-1-.1-.2 0-1.2.7-1.5.9-3.9 5.6-18.6 25.9-24.5 34.2-5.9 8.3-11.3 15.9-16.1 22.6-12.2 17-19.9 27.5-22.9 31.6-3 4-8.6 11.4-11.2 14.8z"/></svg>