<svg id="Layer_1" data-name="Layer 1" xmlns="http://www.w3.org/2000/svg" viewBox="0 0 335 61.36"><defs><style>.cls-1{fill:#fff}</style></defs><path class="cls-1" d="M221.36 25.36a6 6 0 0 1-4.77 1.92 6.46 6.46 0 0 1-6.69-6.75 6.46 6.46 0 0 1 6.69-6.75 6.59 6.59 0 0 1 4.65 1.75l-.76 1.47a5.2 5.2 0 0 0-3.78-1.57 4.8 4.8 0 0 0-4.88 5.12 4.77 4.77 0 0 0 4.88 5.12 5.14 5.14 0 0 0 3.9-1.57zm5.64 1.92a4.55 4.55 0 0 1-4.77-4.66 4.77 4.77 0 1 1 4.77 4.66zm0-7.91a2.9 2.9 0 0 0-2.91 3.14 2.92 2.92 0 1 0 5.82 0 2.9 2.9 0 0 0-2.91-3.14zM241.48 27h-1.86v-5c0-1.51-.29-2.67-1.86-2.67s-2.33 1.39-2.33 3.14V27h-1.8v-8.91h1.8v1.39h.06a3.05 3.05 0 0 1 2.73-1.57c2.56 0 3.2 1.69 3.2 3.84V27zm7.52-.54a3.76 3.76 0 0 1-2.5.82 4.29 4.29 0 0 1-3.49-1.63l.87-1a3.76 3.76 0 0 0 2.68 1.28c.81 0 1.74-.29 1.74-1.28s-1.39-1.28-2-1.51a7.64 7.64 0 0 1-1.22-.47 2.28 2.28 0 0 1-1.4-2.15c0-1.68 1.45-2.56 3-2.56a4.1 4.1 0 0 1 3.09 1.17l-.76 1.1a3.43 3.43 0 0 0-2.27-1c-.87 0-1.45.35-1.45 1.11s.87 1 1.74 1.34c.47.17.82.29 1.22.4a6.83 6.83 0 0 1 1.05.64 2.28 2.28 0 0 1 .7 1.69 3 3 0 0 1-1 2.05zM259.86 23h-6.92a2.76 2.76 0 0 0 2.91 2.85 4.88 4.88 0 0 0 3-1.05l.76 1.05a5.25 5.25 0 0 1-4 1.4c-2.67 0-4.48-1.86-4.48-4.71a4.44 4.44 0 0 1 4.54-4.66 4.12 4.12 0 0 1 4.25 4.31 7.63 7.63 0 0 1-.06.81zm-1.63-1.22a2.58 2.58 0 0 0-2.62-2.56 2.67 2.67 0 0 0-2.67 2.56zm4.48-5.55a1.11 1.11 0 1 1 0-2.21 1.11 1.11 0 1 1 0 2.21zm.93 10.77h-1.8v-8.91h1.8zm4.42 0h-1.8V14h1.8zm15.06 0h-1.74v-1.35h-.06a3.66 3.66 0 0 1-3.14 1.63c-2.68 0-4.36-2-4.36-4.71s1.68-4.66 4.36-4.66a3.65 3.65 0 0 1 3.14 1.57h.06V14h1.8v13zm-4.59-7.67a2.82 2.82 0 0 0-2.85 3.14c0 1.8 1 3.2 2.85 3.2s2.85-1.4 2.85-3.2a2.86 2.86 0 0 0-2.85-3.1zM293.88 23H287a2.77 2.77 0 0 0 2.91 2.85 4.85 4.85 0 0 0 3-1.05l.76 1.05a5.24 5.24 0 0 1-3.95 1.4c-2.68 0-4.48-1.86-4.48-4.71a4.43 4.43 0 0 1 4.53-4.66 4.12 4.12 0 0 1 4.25 4.31 7.63 7.63 0 0 1-.14.81zm-1.63-1.22a2.57 2.57 0 0 0-2.61-2.56 2.68 2.68 0 0 0-2.64 2.59zm8.61 4.68a3.76 3.76 0 0 1-2.5.82 4.29 4.29 0 0 1-3.49-1.63l.87-1a3.76 3.76 0 0 0 2.68 1.28c.81 0 1.74-.29 1.74-1.28s-1.39-1.28-2-1.51a7.64 7.64 0 0 1-1.22-.47 2.28 2.28 0 0 1-1.4-2.15c0-1.68 1.45-2.56 3-2.56a4.12 4.12 0 0 1 3.09 1.17l-.76 1.1a3.43 3.43 0 0 0-2.27-1c-.87 0-1.45.35-1.45 1.11s.87 1 1.74 1.34c.47.17.82.29 1.22.4a6.83 6.83 0 0 1 1 .64 2.28 2.28 0 0 1 .7 1.69 2.77 2.77 0 0 1-.95 2.05zm13.49.54h-1.74v-1.12a3.6 3.6 0 0 1-2.85 1.34 2.83 2.83 0 0 1-3.08-2.79c0-1.75 1.45-2.68 3.54-2.74l2.39-.11v-.35a2 2 0 0 0-2.21-2 6.06 6.06 0 0 0-2.73.76l-.53-1.22a6.47 6.47 0 0 1 3.37-.93 3.7 3.7 0 0 1 3 1 3.87 3.87 0 0 1 1 2.91V27zm-1.8-4.3-2.09.12c-1.46.05-2 .69-2 1.57s.64 1.57 1.86 1.57a2.82 2.82 0 0 0 2.27-1.28v-2zm9.02-2.93h-.06a3 3 0 0 0-1-.17 1.8 1.8 0 0 0-1.46.76 4 4 0 0 0-.52 2.26v4.48h-1.8v-9h1.8v1.39h.06a2.29 2.29 0 0 1 2.21-1.57 2.19 2.19 0 0 1 .93.18zm5.81 7.23a4.69 4.69 0 0 1-1.63.29 2.16 2.16 0 0 1-1.92-.93 5 5 0 0 1-.46-2.68v-4.14H322v-1.45h1.34v-2.68h1.8v2.68h2.15v1.45h-2.15v4.07a3.13 3.13 0 0 0 .23 1.63.94.94 0 0 0 .93.47 2 2 0 0 0 .93-.24zm6.62-.54a3.76 3.76 0 0 1-2.5.82 4.29 4.29 0 0 1-3.5-1.63l.87-1a3.76 3.76 0 0 0 2.68 1.28c.81 0 1.74-.29 1.74-1.28s-1.39-1.28-2-1.51a7.64 7.64 0 0 1-1.22-.47 2.28 2.28 0 0 1-1.4-2.15c0-1.68 1.45-2.56 3-2.56a4.09 4.09 0 0 1 3.09 1.17l-.76 1.1a3.41 3.41 0 0 0-2.27-1c-.87 0-1.45.35-1.45 1.11s.87 1 1.74 1.34c.47.17.82.29 1.23.4a7.24 7.24 0 0 1 1 .64 2.28 2.28 0 0 1 .7 1.69 2.77 2.77 0 0 1-.95 2.05zM219.15 48.33h-1.75v-1.45h-.06a3.64 3.64 0 0 1-3.14 1.62c-2.67 0-4.36-2-4.36-4.71s1.69-4.65 4.36-4.65a3.64 3.64 0 0 1 3.14 1.57h.06v-5.47h1.8v13.09zm-4.6-7.68a2.83 2.83 0 0 0-2.85 3.14c0 1.81 1.05 3.2 2.85 3.2s2.85-1.39 2.85-3.2a2.86 2.86 0 0 0-2.85-3.14zm14.83 7.68h-1.74v-1.28a3.12 3.12 0 0 1-2.79 1.51 3 3 0 0 1-2.5-1 4.51 4.51 0 0 1-.64-2.8v-5.4h1.8v5.29c0 1.22.29 2.38 1.86 2.38s2.21-1.33 2.21-2.85v-4.86h1.8v9zm17.16-1.69a6 6 0 0 1-4.77 1.92 6.46 6.46 0 0 1-6.69-6.74 6.46 6.46 0 0 1 6.69-6.75 6.61 6.61 0 0 1 4.65 1.74l-.75 1.46a5.24 5.24 0 0 0-3.78-1.57 4.77 4.77 0 0 0-4.89 5.12 4.76 4.76 0 0 0 4.89 5.11 5.13 5.13 0 0 0 3.89-1.57zm8.67 1.69h-1.75v-1.16a3.63 3.63 0 0 1-2.85 1.33 2.82 2.82 0 0 1-3.08-2.79c0-1.71 1.47-2.71 3.55-2.71l2.38-.12v-.35a2 2 0 0 0-2.21-2 6.27 6.27 0 0 0-2.73.75L248 40a7.1 7.1 0 0 1 3.38-.93 3.69 3.69 0 0 1 3 1.05 3.87 3.87 0 0 1 1 2.91v5.29zM253.4 44l-2.09.11c-1.46.06-2 .7-2 1.57s.64 1.57 1.86 1.57A2.79 2.79 0 0 0 253.4 46v-2zm11.98 4.33h-1.8v-5c0-1.51-.29-2.68-1.86-2.68s-2.33 1.4-2.33 3.14v4.54h-1.8v-9h1.8v1.39h.06a3.07 3.07 0 0 1 2.73-1.57c2.56 0 3.2 1.69 3.2 3.84zm9.37 0H273v-1.16a3.63 3.63 0 0 1-2.85 1.33 2.83 2.83 0 0 1-3.08-2.79c0-1.74 1.45-2.67 3.55-2.73l2.38-.12v-.35a2 2 0 0 0-2.21-2 6.27 6.27 0 0 0-2.73.75l-.52-1.26a7.05 7.05 0 0 1 3.37-.93 3.69 3.69 0 0 1 3 1.05 3.83 3.83 0 0 1 1 2.91v5.29zM272.94 44l-2.09.11c-1.45.06-2 .7-2 1.57s.64 1.57 1.87 1.57a2.79 2.79 0 0 0 2.22-1.25v-2zm12.86 4.33h-1.75v-1.45H284a3.64 3.64 0 0 1-3.14 1.62c-2.67 0-4.36-2-4.36-4.71s1.69-4.65 4.36-4.65a3.64 3.64 0 0 1 3.14 1.57h.06v-5.47h1.81v13.09zm-4.6-7.68a2.83 2.83 0 0 0-2.85 3.14c0 1.81 1 3.2 2.85 3.2s2.85-1.39 2.85-3.2a2.86 2.86 0 0 0-2.85-3.14zm14.19 7.68h-1.74v-1.16a3.63 3.63 0 0 1-2.85 1.33 2.82 2.82 0 0 1-3.08-2.79c0-1.74 1.45-2.67 3.49-2.73l2.38-.12v-.35a2 2 0 0 0-2.21-2 6.27 6.27 0 0 0-2.73.75l-.53-1.26a7.1 7.1 0 0 1 3.38-.93 3.69 3.69 0 0 1 3 1.05 3.87 3.87 0 0 1 1 2.91v5.29zm-1.8-4.3-2.09.11c-1.46.06-2 .7-2 1.57s.64 1.57 1.86 1.57a2.79 2.79 0 0 0 2.23-1.28v-2zM80.44 25.36a6 6 0 0 1-4.77 1.92A6.46 6.46 0 0 1 69 20.53a6.46 6.46 0 0 1 6.69-6.75 6.59 6.59 0 0 1 4.65 1.75L79.56 17a5.2 5.2 0 0 0-3.78-1.57 4.8 4.8 0 0 0-4.88 5.12 4.77 4.77 0 0 0 4.88 5.12 5.14 5.14 0 0 0 3.9-1.57zM89.1 27h-1.74v-1.12a3.6 3.6 0 0 1-2.85 1.34 2.83 2.83 0 0 1-3.08-2.79c0-1.75 1.45-2.68 3.54-2.74l2.39-.11v-.35a2 2 0 0 0-2.21-2 6.15 6.15 0 0 0-2.74.76l-.52-1.22a6.47 6.47 0 0 1 3.37-.93 3.7 3.7 0 0 1 3 1 3.87 3.87 0 0 1 1 2.91V27zm-1.8-4.3-2.09.12c-1.46.05-2 .69-2 1.57S83.81 26 85 26a2.83 2.83 0 0 0 2.27-1.28zM99.22 27h-1.8v-5c0-1.51-.29-2.67-1.86-2.67s-2.33 1.39-2.33 3.14V27h-1.8v-8.91h1.8v1.39h.06A3.06 3.06 0 0 1 96 17.91c2.56 0 3.2 1.69 3.2 3.84zm9.42 0h-1.74v-1.12a3.6 3.6 0 0 1-2.85 1.34 2.83 2.83 0 0 1-3.05-2.79c0-1.75 1.45-2.68 3.54-2.74l2.39-.11v-.35a2 2 0 0 0-2.21-2A6.06 6.06 0 0 0 102 20l-.53-1.22a6.48 6.48 0 0 1 3.38-.93 3.69 3.69 0 0 1 3 1 3.87 3.87 0 0 1 1 2.91V27zm-1.8-4.3-2.09.12c-1.46.05-2 .69-2 1.57s.64 1.57 1.86 1.57a2.82 2.82 0 0 0 2.27-1.28zm12.85 4.3H118v-1.35h-.06a3.65 3.65 0 0 1-3.14 1.63c-2.67 0-4.36-2-4.36-4.71s1.69-4.66 4.36-4.66a3.65 3.65 0 0 1 3.14 1.57h.06V14h1.8v13zm-4.59-7.67a2.83 2.83 0 0 0-2.85 3.14c0 1.8 1 3.2 2.85 3.2s2.85-1.4 2.85-3.2a2.86 2.86 0 0 0-2.85-3.1zM129.23 27h-1.74v-1.12a3.6 3.6 0 0 1-2.85 1.34 2.83 2.83 0 0 1-3.08-2.79c0-1.75 1.45-2.68 3.54-2.74l2.39-.11v-.35a2 2 0 0 0-2.21-2 6.15 6.15 0 0 0-2.74.76l-.54-1.26a6.47 6.47 0 0 1 3.37-.93 3.7 3.7 0 0 1 3 1 3.87 3.87 0 0 1 1 2.91V27zm-1.8-4.3-2.09.12c-1.46.05-2 .69-2 1.57s.64 1.57 1.86 1.57a2.83 2.83 0 0 0 2.27-1.28zm18.84 2.66a6 6 0 0 1-4.77 1.92 6.46 6.46 0 0 1-6.68-6.75 6.46 6.46 0 0 1 6.68-6.75 6.6 6.6 0 0 1 4.66 1.75L145.4 17a5.22 5.22 0 0 0-3.78-1.57 4.81 4.81 0 0 0-4.89 5.12 4.77 4.77 0 0 0 4.89 5.12 5.15 5.15 0 0 0 3.9-1.57zm5.64 1.92a4.55 4.55 0 0 1-4.76-4.66 4.77 4.77 0 0 1 9.53 0 4.55 4.55 0 0 1-4.77 4.66zm0-7.91a2.9 2.9 0 0 0-2.9 3.14 2.92 2.92 0 1 0 5.81 0 2.9 2.9 0 0 0-2.91-3.14zM166.16 27h-1.74v-1.24a3.11 3.11 0 0 1-2.79 1.52 2.82 2.82 0 0 1-2.5-1.05 4.46 4.46 0 0 1-.64-2.79v-5.35h1.8v5.29c0 1.22.29 2.38 1.86 2.38s2.21-1.33 2.21-2.85v-4.82h1.8v9zm10.36 0h-1.81v-5c0-1.51-.29-2.67-1.86-2.67s-2.32 1.39-2.32 3.14V27h-1.87v-8.91h1.81v1.39h.06a3.05 3.05 0 0 1 2.73-1.57c2.56 0 3.2 1.69 3.2 3.84V27zm9.94-1.06a4.39 4.39 0 0 1-3.6 1.34 4.48 4.48 0 0 1-4.54-4.71 4.81 4.81 0 0 1 8.08-3.38l-.64 1.34a3.56 3.56 0 0 0-2.67-1.1 2.92 2.92 0 0 0-2.91 3.08 2.89 2.89 0 0 0 2.91 3.2 3.77 3.77 0 0 0 2.73-1.17zm2.44-9.71a1.11 1.11 0 1 1 1.17-1.11 1.09 1.09 0 0 1-1.17 1.11zm.93 10.77H188v-8.91h1.8zm4.42 0h-1.8V14h1.8zM74.1 36.64a4 4 0 0 0-1-.17c-1.16 0-1.4.87-1.4 1.92v1h2.16v1.46h-2.21v7.5h-1.8v-7.5h-1.28v-1.48h1.28v-.93a3.92 3.92 0 0 1 .58-2.38 2.81 2.81 0 0 1 2.16-1 4.3 4.3 0 0 1 1.57.23zm4.77 11.92a4.55 4.55 0 0 1-4.77-4.65 4.77 4.77 0 1 1 4.77 4.65zm0-7.91A2.9 2.9 0 0 0 76 43.79a2.92 2.92 0 1 0 5.81 0 2.9 2.9 0 0 0-2.94-3.14zm11.51.41h-.06a2.62 2.62 0 0 0-1-.17 1.83 1.83 0 0 0-1.46.75 4 4 0 0 0-.52 2.27v4.48H85.5v-9h1.8v1.4h.06a2.27 2.27 0 0 1 2.21-1.57 2.3 2.3 0 0 1 .93.17zm9.62 7.21a4.69 4.69 0 0 1-1.63.29 2.16 2.16 0 0 1-1.92-.93A5 5 0 0 1 96 45v-4.17h-1.37v-1.46H96V36.7h1.8v2.67h2.15v1.46h-2.18v4.07a3.13 3.13 0 0 0 .23 1.63.94.94 0 0 0 .93.46 2.1 2.1 0 0 0 .93-.23zm9.4.06h-1.8v-5.12c0-1.28-.24-2.56-1.86-2.56s-2.33 1.4-2.33 3.2v4.42h-1.8v-13h1.8v5.47h.06a3.08 3.08 0 0 1 2.79-1.57c2.62 0 3.2 1.69 3.2 3.78v5.41zm10.6-4.01h-6.92a2.77 2.77 0 0 0 2.92 2.85 4.93 4.93 0 0 0 3-1.05l.75 1.05a5.27 5.27 0 0 1-4 1.39c-2.68 0-4.48-1.86-4.48-4.71a4.43 4.43 0 0 1 4.54-4.65 4.1 4.1 0 0 1 4.19 4.3 7.93 7.93 0 0 1 0 .82zm-1.62-1.22a2.58 2.58 0 0 0-2.62-2.56 2.68 2.68 0 0 0-2.68 2.56zm18.3 5.23h-2l-1.38-3.43h-5.58l-1.34 3.43h-1.92l5.3-13.09h1.62zm-3.9-4.88-2.27-5.88-2.27 5.88zm10.06-2.39h-.06a2.64 2.64 0 0 0-1-.17 1.82 1.82 0 0 0-1.45.75 4 4 0 0 0-.52 2.27v4.48H138v-9h1.81v1.4h.06a2.27 2.27 0 0 1 2.21-1.57 2.3 2.3 0 0 1 .93.17zm5.82 7.21a4.69 4.69 0 0 1-1.63.29 2.16 2.16 0 0 1-1.92-.93 4.94 4.94 0 0 1-.47-2.67v-4.13h-1.33v-1.46h1.33V36.7h1.81v2.67h2.15v1.46h-2.15v4.07a3.13 3.13 0 0 0 .23 1.63.93.93 0 0 0 .93.46 2.1 2.1 0 0 0 .93-.23zm6.63-.52a3.83 3.83 0 0 1-2.5.81 4.26 4.26 0 0 1-3.49-1.63l.87-1a3.78 3.78 0 0 0 2.68 1.28c.81 0 1.74-.29 1.74-1.28s-1.4-1.28-2-1.51a10.92 10.92 0 0 1-1.22-.47 2.28 2.28 0 0 1-1.39-2.15c0-1.69 1.45-2.56 3-2.56a4.12 4.12 0 0 1 3.02 1.12l-.75 1.11a3.4 3.4 0 0 0-2.27-1c-.87 0-1.45.35-1.45 1.1s.87 1.05 1.74 1.34c.47.18.81.29 1.22.41a6.13 6.13 0 0 1 1.05.64 2.28 2.28 0 0 1 .7 1.69 2.79 2.79 0 0 1-.95 2.1zm-101.2 1.1C51.18 46 42.75 43.56 34.08 43a3.84 3.84 0 0 0-1.28 1.51c7.27.35 14.31 2.38 16.87 4.71 2.33 1.86 2 4.42-.76 6.17-3.95 2.79-12.15 4.07-21 4s-17.1-1.22-21-4c-2.74-1.75-3.09-4.31-.7-6.17 2.62-2.33 9.6-4.42 16.87-4.71A5.05 5.05 0 0 0 21.7 43c-8.67.52-17 3-20 5.81-4 3.61-.82 7.68 7.85 10.24a68.12 68.12 0 0 0 18.32 2.27 68.12 68.12 0 0 0 18.32-2.27c8.66-2.52 11.86-6.59 7.9-10.2z"/><path class="cls-1" d="M49.44 19.43c-.18-2.39-2.1-4.25-4.42-5.12a4.29 4.29 0 0 0 .4-4.42c-1.1-2.56-4.07-3.38-5.87-3.26-2.5.17-4 1.22-6.69 3.26-.64-.47-1.86-1.4-2.44-1.89a22.73 22.73 0 0 1 3.72-2.5 8.78 8.78 0 0 1 3-1.11A12.26 12.26 0 0 0 27.8 0a12.25 12.25 0 0 0-9.36 4.42 8.78 8.78 0 0 1 3 1.11A23.06 23.06 0 0 1 25.19 8c-.53.4-1.81 1.33-2.45 1.86-2.67-2-4.18-3.09-6.69-3.26-1.8-.12-4.76.7-5.87 3.26a4.29 4.29 0 0 0 .41 4.42c-2.33.87-4.25 2.73-4.42 5.12a5.67 5.67 0 0 0 3.72 5.64 4.63 4.63 0 0 0-1.05 2.79c0 2.32 2.1 5.47 6.52 5.35 3.31-.12 4.59-1.11 7.21-3.14.17.23 2.15 3.43 2.15 9 0 0 .29 4.25-1.8 14.6 0 .58 2.15 1 4.82 1s4.83-.46 4.83-1C30.48 43.27 30.77 39 30.77 39a17.36 17.36 0 0 1 2.15-9c2.62 2 3.9 3 7.21 3.14 4.42.12 6.52-3 6.52-5.35a4.77 4.77 0 0 0-1-2.79 5.64 5.64 0 0 0 3.79-5.57zM39.49 10c2.33-.12 3.2 1.27 3 2.21a2.78 2.78 0 0 1-3 1.86c-1.34-.12-2.32-.82-3.89-2.1A7.73 7.73 0 0 1 39.49 10zM33 14c.75.58 1.45 1.1 2 1.51a8.14 8.14 0 0 0 .88.64c-.41.29-.7.52-1.17.87s-.81.64-1.33 1c-.82-.58-1.75-1.34-2.85-2.15.76-.63 1.52-1.27 2.47-1.87zm-2.68-2c-.75.58-1.45 1.11-2.38 1.86-.93-.69-1.63-1.28-2.39-1.86l2.33-1.8.06-.06.06.06c1 .68 1.66 1.26 2.3 1.72zm-5.77-8.16s.81-.93 3.25-.93 3.26.93 3.26.93a14.94 14.94 0 0 0-1.51 1c-1.17.81-1.69 1.28-1.75 1.28a13 13 0 0 0-1.74-1.28 14.94 14.94 0 0 0-1.51-1zm3.19 14.07.12-.11.12.11c.87.7 1.8 1.34 2.79 2.1a17.79 17.79 0 0 0-1.46 1.1L28 22.1l-.06.06-.06-.06c-.46-.35-.93-.7-1.34-1s-.87-.7-1.45-1.1c.85-.75 1.78-1.39 2.65-2.09zm-5-3.95c.87.64 1.69 1.28 2.45 1.86-1.11.87-2.1 1.57-2.91 2.15-.47-.35-1-.75-1.34-1s-.76-.58-1.16-.87a8 8 0 0 0 .87-.64c.64-.4 1.35-.98 2.09-1.46zm-6.51-4c1.51.05 2.85 1.16 3.9 2-1.63 1.28-2.62 2-3.9 2.1a2.78 2.78 0 0 1-3-1.86c-.23-.98.67-2.37 3-2.2zm-6.75 10.1c-.06-1.22.82-3 4.07-3.14 2.21-.11 3.73 1.17 6.17 3-1.92 1.45-3.43 2.73-6.22 2.91-2.21.17-3.96-1.49-4.02-2.77zm6.23 10.07c-2.33.11-3.73-1.05-3.61-2.33.06-1 2.27-3.31 6.86-1.28a8 8 0 0 1 1.69 1.05c-2.27 1.74-3.14 2.5-4.94 2.56zm7.44-4.42a11.43 11.43 0 0 0-3-2.1A25.48 25.48 0 0 0 22.34 22l.05-.05c1.05.75 2 1.51 2.91 2.15-.75.56-1.45 1.08-2.15 1.61zm4.77 8.72-.06.29-.06-.29a19.5 19.5 0 0 0-2.32-6.05c.81-.64 1.57-1.22 2.38-1.8.76.58 1.51 1.16 2.39 1.8a20.82 20.82 0 0 0-2.33 6.05zm4.65-8.72-2.15-1.63c.87-.64 1.86-1.4 2.85-2.15.06 0 .06 0 .06.05a16.69 16.69 0 0 0 2.21 1.63 12 12 0 0 0-2.97 2.1zM40 30.13c-1.81-.06-2.62-.82-5-2.5a6.29 6.29 0 0 1 1.69-1.05c4.59-2.09 6.8.23 6.86 1.28.19 1.22-1.21 2.38-3.55 2.27zm2.21-7.27C39.43 22.68 38 21.4 36 20c2.39-1.8 4-3.08 6.17-3 3.25.18 4.13 1.92 4.07 3.14s-1.8 2.86-4.01 2.72z"/></svg>