<svg version="1.1" id="Layer_1" xmlns="http://www.w3.org/2000/svg" x="0" y="0" viewBox="0 0 217 72.6" style="enable-background:new 0 0 217 72.6" xml:space="preserve"><style>.st0{fill-rule:evenodd;clip-rule:evenodd;fill:#fff}</style><path class="st0" d="M140 44.6h4.4v2.7H140zm-14.3-1.7h-2v-6.5h-3.4v16.4h3.4v-7.1h2v7.1h3.4V36.4h-3.4zm5.8 9.9h7V50h-3.6v-4.3h3.4v-2.8h-3.4v-3.7h3.6v-2.8h-7zm-21.1-13.6h2.5v13.6h3.4V39.2h2.5v-2.8h-8.4zm-21.9-2.3c-.7-.6-1.5-.8-3.2-.8-1.6 0-2.4.2-3.1.7-.9.6-1.3 1.6-1.3 3v9.6c0 1.5.4 2.5 1.3 3.1.7.5 1.5.6 3.1.6 1.7 0 2.5-.2 3.2-.8.7-.6 1.1-1.6 1.1-2.9v-6.5h-4.4v2.8h1v3.1c0 .9-.3 1.4-1 1.4s-1-.5-1-1.4v-8.4c0-.9.3-1.4 1-1.4s1 .5 1 1.4v.6h3.4v-1.2c0-1.3-.4-2.3-1.1-2.9zm13.9 15.9h7V50h-3.6v-4.3h3.4v-2.8h-3.4v-3.7h3.6v-2.8h-7zm-3.2-15.9c-.7-.6-1.5-.8-3.2-.8-1.6 0-2.4.2-3.1.7-.9.6-1.3 1.6-1.3 3v9.6c0 1.5.4 2.4 1.3 3 .7.5 1.5.6 3.1.6 1.7 0 2.5-.2 3.2-.8.7-.6 1.1-1.6 1.1-2.9v-9.6c0-1.2-.4-2.2-1.1-2.8zm-2.3 11.9c0 .9-.3 1.4-1 1.4s-1-.5-1-1.4v-8.4c0-.9.3-1.4 1-1.4s1 .5 1 1.4v8.4zm49.5-12.4h3.4v16.5h-3.4zm42.3 2.8h2.5v13.6h3.4V39.2h2.5v-2.8h-8.4zm28.3-2.8h-8.4v2.8h2.5v13.6h3.4V39.2h2.5v-2.8zm-33.2 0h3.4v16.5h-3.4zm20.1 12.4c0 1-.3 1.5-1 1.5s-1-.5-1-1.5V36.4h-3.4v12.4c0 2 .4 3 1.6 3.7.7.4 1.6.6 2.8.6 3.2 0 4.4-1.2 4.4-4.3V36.4h-3.4v12.4zm-30-12.4v2.8h2.5v13.6h3.4V39.2h2.5v-2.8zm-14.5 8.7c0 .8.1 1.5.4 3.4-.2-.7-.3-1.3-.4-1.5-.1-.4-.2-.7-.3-1.1-.1-.4-.2-.9-.4-1.4l-2.6-8.1h-4v16.4h3.1v-9.2c0-.5 0-.6-.2-2.9.3 1.2.4 1.9.5 2.1.1.3.1.6.2.9l2.7 9.1h4V36.4h-3.1v8.7zm10.5-1.9c-1.7-1.4-2.1-1.9-2.1-3 0-.8.3-1.3.9-1.3.3 0 .6.1.8.4.2.3.3.6.3 1.8h3.2V40c0-2.9-1.2-4-4.4-4-1.6 0-2.6.3-3.3 1-.6.7-1 1.8-1 3.2 0 1.3.3 2.4 1 3.2.5.7 1 1.2 2.9 2.6 1.2.9 1.5 1.5 1.5 2.6 0 .9-.3 1.4-1 1.4-.3 0-.7-.2-.8-.5-.1-.3-.2-.6-.2-1.3v-.6h-3.4v1c0 3.3 1 4.3 4.7 4.3 1.7 0 2.5-.3 3.2-1 .7-.7 1-1.7 1-3.3-.1-2.1-.8-3.3-3.3-5.4zM59.4 26.5c7.3 0 13.2-5.9 13.2-13.2C72.6 5.9 66.7 0 59.4 0c-7.3 0-13.2 5.9-13.2 13.2 0 7.4 5.9 13.3 13.2 13.3zM49.1 13.2v-.3c.1-5.7 4.8-10.2 10.5-10.1 5.7.1 10.2 4.8 10.1 10.5 0 5.7-4.6 10.3-10.3 10.3-5.7-.1-10.3-4.7-10.3-10.4zM26.2 36.3c0-5.6 4.5-10.1 10.1-10.1v-2.9c-7.2 0-13 5.8-13 13s5.8 13 13 13 13-5.8 13-13h-2.9c0 5.6-4.6 10.1-10.2 10.1-5.5.1-10-4.5-10-10.1z"/><path class="st0" d="M36.3 52.3c-8.8 0-15.9-7.1-15.9-15.9s7.1-15.9 15.9-15.9v-2.9c-10.4 0-18.8 8.4-18.8 18.8s8.4 18.8 18.8 18.8 18.8-8.4 18.8-18.8h-2.9c.1 8.7-7.1 15.9-15.9 15.9z"/><path class="st0" d="M14.6 36.3c0-12 9.7-21.7 21.7-21.7v-2.9c-13.6 0-24.7 11-24.7 24.6S22.7 61 36.3 61 61 49.9 61 36.3h-2.9c0 12-9.7 21.7-21.7 21.7-12.1 0-21.8-9.7-21.8-21.7z"/><path class="st0" d="M36.3 5.8C19.5 5.8 5.8 19.5 5.8 36.3s13.7 30.5 30.5 30.5 30.5-13.7 30.5-30.5h-2.9c0 15.2-12.4 27.6-27.6 27.6-15.2 0-27.6-12.3-27.6-27.6C8.7 21.1 21 8.7 36.3 8.7V5.8z"/><path class="st0" d="M36.3 69.8c-18.5 0-33.4-15-33.4-33.4S17.9 3 36.3 3V0C16.3 0 0 16.3 0 36.3s16.3 36.3 36.3 36.3c20.1 0 36.3-16.3 36.3-36.3h-2.9c.1 18.5-14.9 33.5-33.4 33.5z"/></svg>