<svg width="451" height="211" xmlns="http://www.w3.org/2000/svg"><g fill="#FFF" fill-rule="nonzero"><path d="M96.84 2.01C83.68-1.67 71.9-.26 63.67 5.98c-7.16 5.43-10.94 13.95-10.94 24.64v13.99l4.41 1.73V30.62c0-9.26 3.18-16.56 9.2-21.13 7.11-5.39 17.52-6.54 29.33-3.24 25.79 7.22 39.71 32.92 39.71 53.44v17.45l4.41 1.73V59.69c-.02-22.14-15.06-49.88-42.95-57.68zM57.13 93.29V55.07L0 90.3v88.87l49.51-30.53 33.12 12.81v49.59l57.13-35.23V87.02l-36.3 22.38-46.33-16.11zm-4.4-30.25v31.21L4.4 124.05V92.84l48.33-29.8zM4.4 171.29V131.2l39.96 15.45L4.4 171.29zm2.73-43.75L55.84 97.5l42.8 14.88-16 9.86v34.48L7.13 127.54zm128.24 45.81-48.33 29.8v-78.44l48.33-29.8v78.44zm247.89-76.42h67.16v3.93h-67.16v-3.93zM214.66 91.87h-25.18V73.03h-4.76v43.64h4.76V96.39h25.18v20.28h4.76V73.03h-4.76v18.84zm37.06-2.35c-1.11-1.34-2.52-2.42-4.18-3.23-1.67-.8-3.63-1.21-5.84-1.21-2.28 0-4.36.39-6.16 1.17-1.8.78-3.35 1.87-4.61 3.25-1.25 1.38-2.22 3.06-2.88 5-.65 1.93-.98 4.09-.98 6.4 0 2.27.32 4.43.95 6.42.63 2 1.57 3.77 2.8 5.27 1.23 1.5 2.78 2.69 4.61 3.56 1.83.86 3.95 1.3 6.32 1.3 1.83 0 3.49-.23 4.95-.68 1.46-.45 2.73-1.09 3.79-1.9 1.05-.81 1.92-1.77 2.56-2.88.64-1.1 1.09-2.28 1.34-3.51l.09-.48h-4.57l-.08.29c-.45 1.54-1.35 2.77-2.69 3.65-1.35.89-3.16 1.34-5.39 1.34-1.54 0-2.93-.28-4.16-.83a9.048 9.048 0 0 1-3.16-2.36c-.88-1.01-1.57-2.26-2.05-3.7-.48-1.45-.73-3.12-.73-4.94v-.44h23.34v-1.6c0-1.79-.27-3.56-.8-5.28-.53-1.73-1.36-3.28-2.47-4.61zm-10.15-.27c1.38 0 2.61.23 3.65.69 1.04.46 1.94 1.06 2.66 1.8.72.74 1.29 1.6 1.69 2.55.35.82.57 1.68.68 2.56h-18.29c.17-.87.47-1.73.87-2.54.48-.95 1.12-1.81 1.92-2.56.8-.74 1.77-1.35 2.88-1.81 1.12-.46 2.44-.69 3.94-.69zm41.78 18.34c-.42 1.7-1.29 3.09-2.59 4.13-1.3 1.04-3.12 1.56-5.42 1.56-1.81 0-3.36-.34-4.61-1a9.358 9.358 0 0 1-3.14-2.67c-.83-1.12-1.44-2.41-1.83-3.86-.39-1.46-.59-3.01-.59-4.61 0-1.6.2-3.14.59-4.58.38-1.42.99-2.7 1.8-3.8.8-1.08 1.85-1.95 3.12-2.58 1.28-.63 2.84-.95 4.65-.95 2.22 0 3.97.51 5.21 1.5 1.25 1.01 2.16 2.35 2.69 3.98l.09.28h4.57l-.1-.48c-.58-2.71-1.91-4.99-3.97-6.76-2.07-1.78-4.92-2.68-8.48-2.68-2.37 0-4.49.43-6.32 1.27-1.82.84-3.38 2-4.64 3.46-1.25 1.45-2.2 3.19-2.84 5.15-.63 1.95-.95 4.07-.95 6.3 0 2.19.32 4.29.95 6.24.63 1.96 1.59 3.7 2.84 5.17a13.25 13.25 0 0 0 4.64 3.5c1.83.84 3.95 1.27 6.32 1.27 3.48 0 6.32-.91 8.45-2.71 2.12-1.79 3.51-4.14 4.12-6.97l.11-.49h-4.59l-.08.33zm19.47-31.02h-4.58v9.3h-6.36v4.16h6.36v18.8c0 1.52.2 2.8.6 3.81.41 1.03 1.03 1.85 1.84 2.46.8.59 1.83 1.01 3.04 1.24 1.17.22 2.57.34 4.16.34h3.46v-4.16h-3.16c-2.05 0-3.48-.32-4.24-.96-.74-.62-1.12-1.73-1.12-3.32v-18.2h8.52v-4.16h-8.52v-9.31zm34.75 39.61c1.84-.84 3.41-2.01 4.67-3.5 1.25-1.47 2.21-3.21 2.87-5.17.65-1.95.98-4.06.98-6.25 0-2.19-.33-4.29-.98-6.25-.65-1.96-1.62-3.7-2.87-5.17-1.25-1.48-2.82-2.65-4.67-3.5-1.84-.84-3.98-1.27-6.35-1.27-2.41 0-4.55.43-6.38 1.27-1.83.84-3.4 2.02-4.67 3.49-1.27 1.47-2.24 3.22-2.87 5.18-.63 1.95-.95 4.05-.95 6.24 0 2.19.32 4.29.95 6.24.63 1.96 1.6 3.7 2.87 5.18 1.27 1.48 2.84 2.65 4.67 3.49 1.83.84 3.97 1.27 6.38 1.27 2.36.02 4.5-.41 6.35-1.25zm-16.01-10.43c-.41-1.46-.62-2.97-.62-4.48 0-1.52.21-3.02.62-4.48.4-1.44 1.04-2.74 1.88-3.86a9.485 9.485 0 0 1 3.2-2.68c1.28-.67 2.82-1 4.59-1 1.72 0 3.25.34 4.52 1 1.28.67 2.36 1.57 3.2 2.68.85 1.12 1.49 2.42 1.92 3.86.43 1.46.64 2.96.64 4.48 0 1.51-.22 3.02-.64 4.48-.42 1.45-1.07 2.75-1.92 3.86a9.485 9.485 0 0 1-3.2 2.68c-1.28.67-2.8 1-4.53 1-1.77 0-3.31-.34-4.59-1a9.485 9.485 0 0 1-3.2-2.68c-.84-1.12-1.47-2.42-1.87-3.86zm46.11-15.6h2.44v-4.28h-2.5c-2.09 0-3.91.37-5.42 1.09-1.44.69-2.62 1.55-3.52 2.57h-.62v-3.66h-4.46v30.8h4.58v-16.24c0-1.66.24-3.15.72-4.42.48-1.26 1.14-2.34 1.96-3.2.82-.85 1.82-1.52 2.98-1.97 1.16-.46 2.46-.69 3.84-.69zM193.6 50.59h4.76V11.22h14.4V6.94h-33.62v4.28h14.46v39.37zm33.01-24.26c.82-.96 1.83-1.73 2.99-2.3 1.16-.57 2.46-.86 3.87-.86 5.34 0 7.94 2.81 7.94 8.6v18.82H246V31.1c0-3.69-1.07-6.66-3.17-8.83-2.11-2.17-5.13-3.27-8.99-3.27-2.13 0-4.04.42-5.67 1.24-1.56.79-2.76 1.76-3.6 2.9h-.59V6.16h-4.58v44.42h4.58V33.74c0-1.39.23-2.74.7-4.03.46-1.29 1.11-2.42 1.93-3.38zm49.81-20.17h-5.82l-5.44 9.5h4.38l6.88-9.5zm-18.98 40.35c1.23 1.5 2.78 2.7 4.61 3.56 1.83.86 3.95 1.3 6.32 1.3 1.83 0 3.49-.23 4.95-.68 1.46-.45 2.73-1.09 3.79-1.89 1.06-.81 1.92-1.77 2.56-2.88.64-1.1 1.09-2.28 1.34-3.51l.09-.48h-4.57l-.08.29a6.436 6.436 0 0 1-2.69 3.65c-1.35.89-3.16 1.34-5.39 1.34-1.54 0-2.94-.28-4.16-.83a9.08 9.08 0 0 1-3.16-2.36c-.88-1.01-1.57-2.26-2.05-3.71-.48-1.45-.73-3.11-.73-4.94v-.44h23.34v-1.6c0-1.79-.27-3.56-.8-5.28-.53-1.72-1.37-3.27-2.47-4.61-1.11-1.34-2.52-2.42-4.18-3.23-1.67-.8-3.63-1.21-5.84-1.21-2.28 0-4.36.39-6.16 1.17-1.8.78-3.35 1.87-4.61 3.25-1.25 1.38-2.22 3.06-2.88 5-.65 1.93-.98 4.09-.98 6.4 0 2.27.32 4.43.95 6.42.63 2 1.58 3.77 2.8 5.27zm19.43-15.75h-18.29c.17-.87.47-1.73.87-2.54.48-.95 1.12-1.81 1.92-2.56.8-.74 1.77-1.35 2.88-1.81 1.1-.46 2.43-.69 3.93-.69 1.38 0 2.61.23 3.65.69 1.05.46 1.94 1.06 2.66 1.8.72.74 1.29 1.6 1.69 2.55.36.82.59 1.68.69 2.56zm25.59-20.8h.79l4.08 5.7h4.89l-6.88-9.5h-4.85l-6.88 9.5h4.77l4.08-5.7zm9.02 11.78c-2.21-1.81-5.21-2.73-8.92-2.73-1.67 0-3.21.19-4.6.55-1.4.37-2.65.94-3.7 1.68a8.746 8.746 0 0 0-2.55 2.77c-.63 1.09-1.01 2.33-1.13 3.7l-.04.44h4.59l.03-.37c.11-1.41.75-2.5 1.96-3.33 1.22-.85 3.05-1.28 5.44-1.28 2.79 0 4.79.62 5.95 1.85 1.16 1.24 1.75 2.78 1.75 4.59v1.46h-10.04c-2.12 0-3.94.3-5.4.9-1.47.6-2.67 1.4-3.59 2.38-.92.98-1.59 2.09-2.01 3.29a11.27 11.27 0 0 0-.62 3.67c0 1.32.24 2.61.72 3.81a8.915 8.915 0 0 0 2.17 3.2c.95.91 2.15 1.66 3.55 2.21 1.4.56 3.02.84 4.83.84 2.25 0 4.26-.41 5.99-1.21 1.66-.77 2.98-1.75 3.92-2.93h.61v3.36h4.46V29.36c-.01-3.23-1.14-5.79-3.37-7.62zm-18.3 19.38c0-1.78.68-3.22 2.01-4.28 1.36-1.08 3.4-1.62 6.05-1.62h9.02v3.08c0 1.29-.26 2.5-.77 3.58a8.52 8.52 0 0 1-2.12 2.81c-.9.78-1.96 1.4-3.15 1.85a11 11 0 0 1-3.82.67c-2.18 0-3.95-.54-5.27-1.59-1.3-1.04-1.95-2.55-1.95-4.5zm34.62 1.63c0 1.52.2 2.81.6 3.81.41 1.03 1.03 1.85 1.84 2.46.81.59 1.83 1.01 3.04 1.24 1.18.22 2.58.34 4.16.34h3.46v-4.16h-3.16c-2.05 0-3.48-.32-4.24-.96-.74-.62-1.12-1.73-1.12-3.32v-18.2h8.52V19.8h-8.52v-9.3h-4.58v9.3h-6.36v4.16h6.36v18.79zm26.36-8.41c0-1.66.24-3.15.72-4.42.48-1.26 1.14-2.34 1.96-3.2.82-.85 1.82-1.52 2.98-1.97 1.17-.46 2.46-.69 3.84-.69h2.44v-4.28h-2.5c-2.09 0-3.91.37-5.42 1.09-1.44.69-2.62 1.55-3.52 2.57h-.62v-3.66h-4.46v30.8h4.58V34.34zm43.07 8.06.09-.48h-4.57l-.08.29a6.436 6.436 0 0 1-2.69 3.65c-1.35.89-3.16 1.34-5.39 1.34-1.54 0-2.94-.28-4.16-.83a9.08 9.08 0 0 1-3.16-2.36c-.88-1.01-1.57-2.26-2.05-3.71-.48-1.45-.73-3.11-.73-4.94v-.44h23.34v-1.6c0-1.79-.27-3.56-.8-5.28-.53-1.72-1.37-3.27-2.47-4.61-1.11-1.34-2.52-2.42-4.18-3.23-1.67-.8-3.63-1.21-5.84-1.21-2.28 0-4.36.39-6.16 1.17-1.8.78-3.35 1.87-4.61 3.25-1.25 1.38-2.22 3.06-2.88 5-.65 1.93-.98 4.09-.98 6.4 0 2.27.32 4.43.95 6.42.63 2 1.57 3.77 2.8 5.26 1.23 1.5 2.78 2.7 4.61 3.56 1.83.86 3.95 1.3 6.32 1.3 1.83 0 3.49-.23 4.95-.68 1.46-.45 2.73-1.09 3.79-1.89 1.06-.81 1.92-1.77 2.56-2.88.64-1.08 1.09-2.26 1.34-3.5zm-4.14-11.64H374.8c.17-.87.47-1.73.87-2.54.48-.95 1.12-1.81 1.92-2.56.8-.74 1.77-1.35 2.88-1.81 1.1-.46 2.43-.69 3.93-.69 1.38 0 2.61.23 3.65.69 1.05.46 1.94 1.06 2.66 1.8.72.74 1.29 1.6 1.69 2.55.36.82.59 1.68.69 2.56zM210.75 171.27c-.77 2.55-2.17 4.62-4.15 6.16-1.98 1.54-4.59 2.32-7.77 2.32-2.64 0-4.95-.51-6.86-1.51-1.92-1.01-3.51-2.36-4.72-4.02-1.23-1.67-2.14-3.63-2.73-5.81-.59-2.2-.89-4.5-.89-6.86 0-2.35.3-4.65.89-6.83.59-2.17 1.51-4.12 2.76-5.81 1.24-1.68 2.83-3.04 4.75-4.05 1.91-1 4.22-1.51 6.87-1.51 3.18 0 5.68.67 7.44 1.99 1.77 1.32 3.12 3.23 4.01 5.67l.09.26h4.99l-.12-.5c-.9-3.68-2.82-6.6-5.71-8.69-2.88-2.08-6.48-3.14-10.7-3.14-3.21 0-6.09.59-8.57 1.75-2.48 1.16-4.6 2.77-6.29 4.79-1.69 2.01-2.98 4.43-3.85 7.19-.87 2.74-1.31 5.73-1.31 8.88 0 3.15.44 6.14 1.31 8.88.87 2.76 2.17 5.18 3.85 7.19 1.69 2.02 3.79 3.63 6.26 4.79 2.46 1.16 5.33 1.75 8.54 1.75 2.31 0 4.44-.31 6.3-.92 1.88-.61 3.55-1.49 4.96-2.62a15.65 15.65 0 0 0 3.57-4.03c.96-1.55 1.67-3.26 2.12-5.1l.12-.5h-5.07l-.09.28zm27.82-19.48c-2.13 0-4.04.42-5.67 1.24-1.55.79-2.76 1.76-3.6 2.9h-.59v-16.98h-4.58v44.42h4.58v-16.84c0-1.39.23-2.75.7-4.04.46-1.29 1.11-2.43 1.94-3.38.82-.95 1.83-1.73 2.99-2.3 1.16-.57 2.46-.86 3.87-.86 5.34 0 7.94 2.81 7.94 8.6v18.82h4.58v-19.48c0-3.69-1.07-6.66-3.17-8.83-2.11-2.17-5.14-3.27-8.99-3.27zm41.56 2.73c-2.21-1.81-5.21-2.73-8.92-2.73-1.67 0-3.22.19-4.6.55-1.4.37-2.65.94-3.7 1.68a8.746 8.746 0 0 0-2.55 2.77c-.63 1.09-1.01 2.33-1.13 3.7l-.04.44h4.59l.03-.37c.11-1.41.75-2.5 1.96-3.33 1.23-.85 3.06-1.28 5.44-1.28 2.79 0 4.79.62 5.95 1.85 1.16 1.24 1.75 2.78 1.75 4.59v1.46h-10.04c-2.12 0-3.94.3-5.4.9-1.47.6-2.67 1.4-3.59 2.38-.92.98-1.59 2.09-2.01 3.29a11.27 11.27 0 0 0-.62 3.67c0 1.33.24 2.61.72 3.81a8.915 8.915 0 0 0 2.17 3.2c.95.91 2.15 1.66 3.55 2.21 1.4.56 3.03.84 4.83.84 2.25 0 4.26-.41 5.99-1.21 1.66-.77 2.98-1.76 3.92-2.93h.61v3.36h4.46v-21.22c-.01-3.23-1.14-5.8-3.37-7.63zm-18.3 19.39c0-1.78.68-3.22 2.01-4.28 1.36-1.08 3.4-1.62 6.05-1.62h9.02v3.08c0 1.29-.26 2.5-.77 3.58a8.52 8.52 0 0 1-2.12 2.81c-.9.79-1.96 1.41-3.15 1.85-1.19.44-2.47.67-3.82.67-2.18 0-3.95-.54-5.27-1.59-1.29-1.05-1.95-2.56-1.95-4.5zm39.24-20.25c-1.44.69-2.62 1.55-3.52 2.57h-.62v-3.66h-4.46v30.8h4.58v-16.24c0-1.66.24-3.15.72-4.42.48-1.26 1.14-2.34 1.96-3.2.82-.86 1.82-1.52 2.98-1.97 1.17-.46 2.46-.69 3.84-.69h2.44v-4.28h-2.5c-2.09 0-3.91.36-5.42 1.09zm14.67-14.71h4.58v44.42h-4.58v-44.42zm34.78 15.57c-2.21-1.81-5.21-2.73-8.92-2.73-1.67 0-3.22.19-4.6.55-1.4.37-2.65.94-3.7 1.68a8.746 8.746 0 0 0-2.55 2.77c-.63 1.09-1.01 2.33-1.13 3.7l-.04.44h4.59l.03-.37c.11-1.41.75-2.5 1.96-3.33 1.23-.85 3.06-1.28 5.44-1.28 2.79 0 4.79.62 5.95 1.85 1.16 1.24 1.75 2.78 1.75 4.59v1.46h-10.04c-2.12 0-3.94.3-5.4.9-1.47.6-2.67 1.4-3.59 2.38-.92.98-1.59 2.09-2.01 3.29a11.27 11.27 0 0 0-.62 3.67c0 1.33.24 2.61.72 3.81a8.915 8.915 0 0 0 2.17 3.2c.95.91 2.15 1.66 3.55 2.21 1.4.56 3.03.84 4.83.84 2.25 0 4.26-.41 5.99-1.21 1.66-.77 2.98-1.76 3.92-2.93h.61v3.36h4.46v-21.22c-.02-3.23-1.15-5.8-3.37-7.63zm-18.31 19.39c0-1.78.68-3.22 2.01-4.28 1.36-1.08 3.4-1.62 6.05-1.62h9.02v3.08c0 1.29-.26 2.5-.77 3.58a8.624 8.624 0 0 1-2.12 2.81c-.9.79-1.96 1.41-3.15 1.85-1.19.44-2.47.67-3.82.67-2.18 0-3.95-.54-5.27-1.59-1.29-1.05-1.95-2.56-1.95-4.5zm43.82-22.12c-2.13 0-4.06.42-5.73 1.24-1.6.79-2.83 1.76-3.66 2.9h-.59v-3.36h-4.46v30.8h4.58v-16.84c0-1.39.23-2.75.7-4.04.46-1.29 1.11-2.43 1.94-3.38.82-.95 1.83-1.73 2.99-2.3 1.16-.57 2.46-.86 3.87-.86 5.34 0 7.94 2.81 7.94 8.6v18.82h4.58v-19.48c0-3.69-1.07-6.66-3.17-8.83-2.11-2.17-5.13-3.27-8.99-3.27zm42.95-12.84v16.98h-.61c-.86-1.06-2.06-2.01-3.57-2.83-1.59-.87-3.69-1.31-6.22-1.31-2.17 0-4.13.42-5.82 1.24a12.8 12.8 0 0 0-4.33 3.44c-1.19 1.45-2.1 3.18-2.71 5.14-.61 1.95-.92 4.09-.92 6.36 0 2.27.31 4.41.92 6.36.61 1.96 1.53 3.68 2.71 5.12 1.19 1.44 2.65 2.59 4.33 3.43 1.69.84 3.65 1.27 5.82 1.27 2.54 0 4.65-.45 6.28-1.34 1.54-.84 2.76-1.78 3.63-2.8h.61v3.36h4.46v-44.42h-4.58zm-9.92 41.04c-1.57 0-2.98-.29-4.18-.86a8.088 8.088 0 0 1-3-2.43c-.81-1.06-1.43-2.34-1.85-3.8-.43-1.48-.64-3.13-.64-4.93 0-1.79.22-3.45.64-4.93.42-1.46 1.04-2.74 1.85-3.8a8.25 8.25 0 0 1 3-2.43c1.2-.57 2.61-.86 4.18-.86 1.76 0 3.28.34 4.52 1 1.24.67 2.28 1.57 3.08 2.67.8 1.11 1.4 2.4 1.77 3.83.37 1.44.56 2.96.56 4.52 0 1.52-.19 3.03-.56 4.49-.37 1.45-.96 2.74-1.77 3.85-.8 1.11-1.83 2-3.08 2.67-1.23.67-2.75 1.01-4.52 1.01z"/></g></svg>